<?xml version="1.0" encoding="utf-8"?>
<!-- Generator: Adobe Illustrator 21.0.0, SVG Export Plug-In . SVG Version: 6.00 Build 0)  -->
<svg version="1.1" id="Layer_1" xmlns="http://www.w3.org/2000/svg" xmlns:xlink="http://www.w3.org/1999/xlink" x="0px" y="0px"
	 viewBox="0 0 90 90" style="enable-background:new 0 0 90 90;" xml:space="preserve">
<style type="text/css">
	.st0{fill:#174543;}
</style>
<path class="st0" d="M33.4,64.3c-0.7,0.7-0.7,1.9,0,2.6c0.4,0.4,0.8,0.5,1.3,0.5s0.9-0.2,1.3-0.5l20.5-20.5c0.7-0.7,0.7-1.9,0-2.6
	L36,23.3c-0.7-0.7-1.9-0.7-2.6,0c-0.7,0.7-0.7,1.9,0,2.6l19.2,19.2L33.4,64.3z"/>
<g>
	<path class="st0" d="M44.9,89.2c-24.3,0-44.1-19.8-44.1-44.1C0.8,20.8,20.6,1,44.9,1C69.2,1,89,20.8,89,45.1
		C89,69.4,69.2,89.2,44.9,89.2z M44.9,4.7C22.6,4.7,4.5,22.8,4.5,45.1c0,22.3,18.1,40.4,40.4,40.4c22.3,0,40.4-18.1,40.4-40.4
		C85.3,22.8,67.2,4.7,44.9,4.7z"/>
</g>
</svg>
