<?xml version="1.0" encoding="utf-8"?>
<!-- Generator: Adobe Illustrator 21.0.0, SVG Export Plug-In . SVG Version: 6.00 Build 0)  -->
<svg version="1.1" id="Layer_1" xmlns="http://www.w3.org/2000/svg" xmlns:xlink="http://www.w3.org/1999/xlink" x="0px" y="0px"
	 viewBox="0 0 60 60" style="enable-background:new 0 0 60 60;" xml:space="preserve">
<style type="text/css">
	.st0{fill:#174543;}
</style>
<g>
	<g>
		<path class="st0" d="M40.1,6H19.9C12.3,6,6,12.3,6,19.9v20.1C6,47.7,12.3,54,19.9,54h20.1C47.7,54,54,47.7,54,40.1V19.9
			C54,12.3,47.7,6,40.1,6z M50.3,40.1c0,5.6-4.6,10.2-10.2,10.2H19.9c-5.6,0-10.2-4.6-10.2-10.2V19.9c0-5.6,4.6-10.2,10.2-10.2h20.1
			c5.6,0,10.2,4.6,10.2,10.2V40.1z"/>
	</g>
</g>
<g>
	<g>
		<path class="st0" d="M30,17.1c-7.1,0-12.9,5.8-12.9,12.9S22.9,42.9,30,42.9S42.9,37.1,42.9,30S37.1,17.1,30,17.1z M30,39.2
			c-5.1,0-9.2-4.1-9.2-9.2s4.1-9.2,9.2-9.2s9.2,4.1,9.2,9.2S35.1,39.2,30,39.2z"/>
	</g>
</g>
<g>
	<g>
		<circle class="st0" cx="43.1" cy="16.9" r="1.9"/>
	</g>
</g>
</svg>
