<?xml version="1.0" encoding="utf-8"?>
<!-- Generator: Adobe Illustrator 21.0.0, SVG Export Plug-In . SVG Version: 6.00 Build 0)  -->
<svg version="1.1" id="Layer_1" xmlns="http://www.w3.org/2000/svg" xmlns:xlink="http://www.w3.org/1999/xlink" x="0px" y="0px"
	 viewBox="0 0 270 170" style="enable-background:new 0 0 270 170;" xml:space="preserve">
<style type="text/css">
	.st0{fill:#AC771F;}
	.st1{fill:#004842;}
	.st2{fill:#FFFFFF;}
	.st3{fill:#004542;}
</style>
<g>
	<g>
		<g>
			<path class="st0" d="M174.6,91.7c-0.4,0-0.7-0.1-1-0.4c-0.6-0.6-0.5-1.5,0-2c9.4-9.1,14.7-21.4,15-34.5
				c0.6-27.4-21.2-50.2-48.6-50.8c-9.4-0.2-18.6,2.2-26.6,7c-0.7,0.4-1.6,0.2-2-0.5c-0.4-0.7-0.2-1.6,0.5-2
				c8.5-5.1,18.2-7.6,28.1-7.4c29,0.6,52.1,24.8,51.4,53.8c-0.3,13.9-6,26.8-15.9,36.5C175.3,91.6,175,91.7,174.6,91.7z"/>
		</g>
		<path class="st1" d="M167.1,97.3c-0.2-0.5-0.7-0.9-1.2-1c-0.2,0-5.4-0.6-10.1-0.2c-2.1,0.2-4.1-0.7-5.4-2.3c-1-1.3-1.5-3-1.3-4.7
			c0.4-3,0.9-7,1-9.5c0-0.6-0.3-1.1-0.8-1.4c-0.5-0.3-1.1-0.2-1.6,0.2c-0.5,0.4-12.3,10.2-15.3,24.6c-3.4-1.7-11.4-7.5-12.3-24.3
			c-0.1-1.3-0.1-2.6-0.1-3.8c3.2-2.6,4.9-5.6,4.9-5.6c0.2-0.4,0.2-0.8,0.1-1.2c-0.2-0.4-0.5-0.7-0.9-0.8l-3.6-1c0.2-1,0.4-2,0.6-3
			c6.1,1.4,10.6-0.3,13.4-2.1c3.3-2.1,4.9-4.6,5-4.8c0.2-0.4,0.3-0.8,0.2-1.2c-0.1-0.4-0.4-0.7-0.8-0.9l-11.8-4.7
			c4.2-6.2,10.1-11.4,18-15.3c0.6-0.3,0.9-0.9,0.8-1.6c-0.1-0.6-0.7-1.1-1.3-1.1l-5.5-0.3c-0.2-0.1-0.4-0.2-0.7-0.2c0,0,0,0,0,0
			c0,0-0.2,0-0.5,0c0.9-3.4,2.3-9.8,0.2-12.7c-0.7-1-1.7-1.5-3-1.5c0,0,0,0,0,0c-0.9-0.1-10-0.5-20.2,3.5c-1.9,0.7-3.8,1.6-5.8,2.8
			c-3.7-0.7-3.4-7.3-3.4-7.4c0-0.6-0.3-1.1-0.8-1.3c-0.5-0.3-1.1-0.2-1.5,0.1c-0.8,0.6-18.6,14.6-21.2,36.5
			c-1.6,13,2.6,26,12.3,38.6c0,0,0,0,0.1,0.1c0.2,0.3,0.4,0.5,0.6,0.8c0,0,0.1,0.1,0.1,0.1c8.1,10.3,21.4,16.9,39.6,19.9
			c0.2,0,1.2,0.2,3,0.2c5.5,0,17.8-1.3,28.8-12C167.2,98.4,167.3,97.8,167.1,97.3z"/>
		<path class="st2" d="M150.3,97.5c-2,0.8-4.7,1.9-7.6,3.3c1.4-1.9,2.8-4.2,4.4-7.2c0.3,0.7,0.7,1.4,1.2,2
			C148.8,96.4,149.5,97,150.3,97.5z"/>
		<path class="st2" d="M102.5,94c-1.7-8.4-1.6-15.7,0.5-22c0.1,3.1,0.6,6.9,1.7,10.8c2.3,7.8,7.8,17.5,20.8,22.9
			C116,103.1,108.3,99.2,102.5,94z"/>
		<path class="st2" d="M147,83.2c-0.2,1.8-0.4,3.7-0.6,5.4c-4.8,10.3-8.9,14.3-11.1,15.9C137,94.7,143.3,87,147,83.2z"/>
		<path class="st2" d="M117.5,78.9c0.8,14.2,6.2,21.2,10.6,24.6c-10.5-3.9-17.5-11-20.5-21.5c-0.4-1.4-0.7-2.7-0.9-4
			c1.4,0.4,2.7,0.5,4,0.5c2.6,0,4.9-0.7,6.9-1.8C117.4,77.5,117.4,78.1,117.5,78.9z"/>
		<path class="st2" d="M118.4,72.8c-3.5,2.8-7.3,3.6-11.4,2.4c-1.2-3.2-1.3-6.7-0.1-10l14.7,4.2C120.9,70.4,119.8,71.7,118.4,72.8z"
			/>
		<path class="st2" d="M108.1,62.6c0.8-1,1.7-2,2.7-3c4-3.8,8.4-6,11.3-7.1c-1.3,2.6-2.4,5.3-3.2,8.2c0,0.1-0.1,0.2-0.1,0.3
			c0,0.1-0.1,0.2-0.1,0.4c-0.4,1.3-0.7,2.7-0.9,4.1L108.1,62.6z"/>
		<path class="st2" d="M136.3,56.1c-2,2.2-6.7,5.9-14.1,4.2c0.9-2.9,2.1-5.7,3.6-8.4L136.3,56.1z"/>
		<path class="st2" d="M124.3,48.7c-1.3,0.3-8.7,2.5-15.3,8.7c-0.4,0.4-0.8,0.8-1.2,1.2c3.2-9.4,8.9-16.3,17-20.6
			c2.4-1.3,4.7-2.2,6.7-2.8v4.8C128.7,42.7,126.3,45.6,124.3,48.7z"/>
		<path class="st2" d="M134.4,37.7v-3.2c1.4-0.3,2.5-0.4,3.2-0.5l2,0.1C137.7,35.2,136,36.4,134.4,37.7z"/>
		<path class="st2" d="M135.2,19.8c0.4,0,0.6,0.1,0.7,0.3c1.2,1.6,0.2,7.4-1,11.3c-0.2,0-0.4,0.1-0.5,0.1V19.8c0.4,0,0.6,0,0.7,0
			C135.1,19.8,135.2,19.8,135.2,19.8z"/>
		<path class="st2" d="M85.1,51.5c2-16.3,13.2-28.4,18-32.8c0.1,0.5,0.2,1.1,0.3,1.7c0.6,2.1,1.5,3.6,2.9,4.6
			c-7.6,5.1-15.2,13.7-18.7,28.2c-0.1,0.4-1.8,7-1,15.6C85,63.1,84.5,57.3,85.1,51.5z"/>
		<path class="st2" d="M97,88.1C97,88.1,97,88.1,97,88.1c-0.5-0.7-1-1.4-1.5-2.1c-9.6-14.9-5.2-31.9-5.1-32.1
			c3.7-15.2,12.3-25.5,25.6-30.8c6.2-2.4,12-3.1,15.5-3.3v12.4c-2.3,0.7-5.1,1.6-8,3.2c-7.2,3.8-16.5,11.8-20.2,28.1c0,0,0,0,0,0.1
			c0,0.1-0.1,0.4-0.1,1c-5,8.4-5.4,17.9-4.3,25.9C98.3,89.7,97.6,88.9,97,88.1z"/>
		<path class="st2" d="M135.8,107.8c7.7-4.8,16.8-8.2,18.5-8.8c0.6,0.1,1.2,0.1,1.7,0c2.1-0.2,4.4-0.1,6.2-0.1
			C150.8,108.4,138.3,108,135.8,107.8z"/>
		<circle class="st1" cx="123.4" cy="27.4" r="2.1"/>
	</g>
	<g>
		<path class="st3" d="M22.2,127.9h14.3v4.5h-9.9v2.4h7.7v4.5h-7.7v2.4h9.9v4.5H22.2V127.9z"/>
		<path class="st3" d="M56,137.1l7.2,9.2h-5.6l-4.4-5.6l-4.3,5.6h-5.7l7.2-9.2l-7.2-9.2l5.7-0.1l4.4,5.6l4.4-5.6l5.6,0.1L56,137.1z"
			/>
		<path class="st3" d="M85.9,133.6c0,3.1-2.6,5.7-5.7,5.7h-6v7h-4.5v-18.3h10.5C83.3,127.9,85.9,130.5,85.9,133.6z M81.4,133.6
			c0-0.7-0.6-1.2-1.2-1.2h-6v2.4h6C80.9,134.8,81.4,134.3,81.4,133.6z"/>
		<path class="st3" d="M92.5,127.9h14.3v4.5h-9.9v2.4h7.7v4.5h-7.7v2.4h9.9v4.5H92.5V127.9z"/>
		<path class="st3" d="M127.1,138.5l3.1,7.8h-4.9l-2.7-7h-4.5v7h-4.5v-18.3h10.5c3.1,0,5.7,2.5,5.7,5.7
			C129.8,135.7,128.7,137.5,127.1,138.5z M125.3,133.6c0-0.7-0.6-1.2-1.2-1.2h-6v2.4h6C124.7,134.8,125.3,134.3,125.3,133.6z"/>
		<path class="st3" d="M137,127.9h4.5v18.3H137V127.9z"/>
		<path class="st3" d="M149.6,127.9H164v4.5h-9.9v2.4h7.7v4.5h-7.7v2.4h9.9v4.5h-14.3V127.9z"/>
		<path class="st3" d="M182.9,128h4.5v18.3h-4.9l-7.2-10.9v10.9h-4.5v-18.3h4.9l7.2,10.9V128z"/>
		<path class="st3" d="M198.1,137.1c0,2.7,2.2,4.9,4.9,4.9c1.3,0,2.6-0.5,3.5-1.5l3.2,3.1c-1.8,1.8-4.2,2.9-6.7,2.9
			c-5.2,0-9.4-4.2-9.4-9.4c0-5.2,4.2-9.4,9.4-9.4c2.7,0,5.3,1.2,7.1,3.3l-3.4,2.9c-0.9-1.1-2.3-1.7-3.7-1.7
			C200.3,132.2,198.1,134.4,198.1,137.1z"/>
		<path class="st3" d="M216.9,127.9h4.5v18.3h-4.5V127.9z"/>
		<path class="st3" d="M241.6,144h-7.5l-0.9,2.3h-4.8l7.1-18.3h4.7l7.1,18.3h-4.8L241.6,144z M239.9,139.6l-2-5.3l-2,5.3H239.9z"/>
	</g>
	<g>
		<path class="st3" d="M21.9,153.8h6.6c2.8,0,5.2,1.7,5.2,5.2c0,3.2-2.4,5.1-5.2,5.1h-4.4v4.3h-2.2V153.8z M24.1,155.8v6.5h4.1
			c1.8,0,3.2-1.2,3.2-3.2c0-2.2-1.4-3.3-3.2-3.3H24.1z"/>
		<path class="st3" d="M40.4,162.3c0,2.6,1.3,4.3,4.2,4.3c2.9,0,4.3-1.8,4.3-4.4v-8.4H51v8.6c0,3.4-2.2,6.3-6.5,6.3
			c-4.2,0-6.4-2.6-6.4-6.3v-8.6h2.2V162.3z"/>
		<path class="st3" d="M56.8,168.5v-14.6h11.4v2h-9.2v4.1h7.6v2h-7.6v4.6h9.2v2H56.8z"/>
		<path class="st3" d="M73.1,153.8h6.4c3.2,0,5.5,1.4,5.5,4.7c0,2.5-1.8,4.2-4.2,4.5l5.1,5.1v0.4h-2.6l-5.3-5.4h-2.7v5.4h-2.2V153.8
			z M75.3,155.8v5.5h4.4c1.6,0,2.9-1,2.9-2.7c0-1.9-1.3-2.8-2.9-2.8H75.3z"/>
		<path class="st3" d="M95.7,155.8v12.6h-2.2v-12.6h-5.2v-2h12.5v2H95.7z"/>
		<path class="st3" d="M111.1,153.6c4.3,0,7.5,3.2,7.5,7.5c0,4.3-3.2,7.5-7.5,7.5c-4.3,0-7.5-3.2-7.5-7.5
			C103.6,156.8,106.8,153.6,111.1,153.6z M111.1,166.6c3.1,0,5.3-2.3,5.3-5.4c0-3.1-2.2-5.4-5.3-5.4c-3.1,0-5.3,2.3-5.3,5.4
			C105.8,164.2,108,166.6,111.1,166.6z"/>
		<path class="st3" d="M144.1,157.4l-5.5,6.7h-0.4l-5.5-6.7v11.1h-2.2v-14.6h2l5.9,7.2l6-7.2h2v14.6h-2.2V157.4z"/>
		<path class="st3" d="M158.8,153.6c4.3,0,7.5,3.2,7.5,7.5c0,4.3-3.2,7.5-7.5,7.5c-4.3,0-7.5-3.2-7.5-7.5
			C151.3,156.8,154.5,153.6,158.8,153.6z M158.8,166.6c3.1,0,5.3-2.3,5.3-5.4c0-3.1-2.2-5.4-5.3-5.4c-3.1,0-5.3,2.3-5.3,5.4
			C153.5,164.2,155.7,166.6,158.8,166.6z"/>
		<path class="st3" d="M171.3,153.8h6.4c3.2,0,5.5,1.4,5.5,4.7c0,2.5-1.8,4.2-4.2,4.5l5.1,5.1v0.4h-2.6l-5.3-5.4h-2.7v5.4h-2.2
			V153.8z M173.6,155.8v5.5h4.4c1.6,0,2.9-1,2.9-2.7c0-1.9-1.3-2.8-2.9-2.8H173.6z"/>
		<path class="st3" d="M188.5,168.5v-14.6h11.4v2h-9.2v4.1h7.6v2h-7.6v4.6h9.2v2H188.5z"/>
		<path class="st3" d="M204.8,168.5v-14.6h2.2v12.7h8v2H204.8z"/>
		<path class="st3" d="M225.2,153.6c4.3,0,7.5,3.2,7.5,7.5c0,4.3-3.2,7.5-7.5,7.5c-4.3,0-7.5-3.2-7.5-7.5
			C217.7,156.8,220.9,153.6,225.2,153.6z M225.2,166.6c3.1,0,5.3-2.3,5.3-5.4c0-3.1-2.2-5.4-5.3-5.4c-3.1,0-5.3,2.3-5.3,5.4
			C219.9,164.2,222.1,166.6,225.2,166.6z"/>
		<path class="st3" d="M237.4,165.3c1,0.6,2.7,1.4,4.6,1.4c2.1,0,3.6-0.8,3.6-2.3c0-1-0.8-1.6-2.5-2l-2.6-0.6
			c-2.5-0.6-3.7-1.9-3.7-3.8c0-2.3,1.8-4.2,5.7-4.2c2,0,4,0.6,5.1,1.2l-0.6,2.1c-1-0.6-2.9-1.2-4.6-1.2c-2.3,0-3.2,0.9-3.2,2
			c0,1,0.7,1.5,2,1.9l2.8,0.7c2.6,0.7,4,1.8,4,3.9c0,2.7-2.5,4.5-6,4.5c-2.1,0-4.2-0.7-5.1-1.3L237.4,165.3z"/>
	</g>
</g>
</svg>
