<?xml version="1.0" encoding="utf-8"?>
<!-- Generator: Adobe Illustrator 21.0.0, SVG Export Plug-In . SVG Version: 6.00 Build 0)  -->
<svg version="1.1" id="Layer_1" xmlns="http://www.w3.org/2000/svg" xmlns:xlink="http://www.w3.org/1999/xlink" x="0px" y="0px"
	 viewBox="0 0 60 60" style="enable-background:new 0 0 60 60;" xml:space="preserve">
<style type="text/css">
	.st0{fill:#174543;}
</style>
<g>
	<g id="youtube">
		<g>
			<path class="st0" d="M46.2,10.2H13.8C7.8,10.2,3,15,3,21v18c0,6,4.8,10.8,10.8,10.8h32.4C52.2,49.8,57,45,57,39V21
				C57,15,52.2,10.2,46.2,10.2z M54.6,39c0,4.6-3.8,8.4-8.4,8.4H13.8c-4.6,0-8.4-3.8-8.4-8.4V21c0-4.6,3.8-8.4,8.4-8.4h32.4
				c4.6,0,8.4,3.8,8.4,8.4V39z M22.2,40.2L39.8,30L22.2,19.8V40.2z M24.6,24L35,30l-10.4,6V24z"/>
		</g>
	</g>
</g>
</svg>
