<?xml version="1.0" encoding="utf-8"?>
<!-- Generator: Adobe Illustrator 21.0.0, SVG Export Plug-In . SVG Version: 6.00 Build 0)  -->
<svg version="1.1" id="Layer_1" xmlns="http://www.w3.org/2000/svg" xmlns:xlink="http://www.w3.org/1999/xlink" x="0px" y="0px"
	 viewBox="0 0 90 90" style="enable-background:new 0 0 90 90;" xml:space="preserve">
<style type="text/css">
	.st0{fill:#CAAA74;}
</style>
<g>
	<path class="st0" d="M88.6,58.8H66.3l3.6-7.1c0.2-0.5,0.2-1-0.1-1.4c-0.3-0.4-0.8-0.7-1.3-0.7l-30.8,1.1v-2.9l37.1-3
		c0.6,0,1.1-0.4,1.3-1c0.2-0.6,0-1.2-0.4-1.5L37.7,10.4V6.4c0-0.8-0.6-1.4-1.4-1.4c-0.8,0-1.4,0.6-1.4,1.4V20L24.2,45.9
		c-0.2,0.4-0.1,0.9,0.1,1.3c0.2,0.4,0.6,0.6,1,0.7l9.5,1.4v1.5l-10.9,0.4c-0.4,0-0.8,0.2-1.1,0.5c-0.3,0.3-0.4,0.8-0.3,1.2l1.2,6
		H2.4c-0.8,0-1.4,0.6-1.4,1.4c0,0.8,0.6,1.4,1.4,1.4h86.1c0.8,0,1.4-0.6,1.4-1.4C90,59.5,89.3,58.8,88.6,58.8z M71.1,42.2l-33.4,2.7
		V20.3c0,0,0,0,0,0v-6.1L71.1,42.2z M27.5,45.3l7.3-17.7v18.7L27.5,45.3z M25.7,54l40.5-1.4L63,58.8H26.7L25.7,54z"/>
	<path class="st0" d="M60.9,65H33.2c-0.8,0-1.4,0.6-1.4,1.4c0,0.8,0.6,1.4,1.4,1.4h27.7c0.8,0,1.4-0.6,1.4-1.4
		C62.3,65.6,61.7,65,60.9,65z"/>
	<path class="st0" d="M27,65H14.7c-0.8,0-1.4,0.6-1.4,1.4c0,0.8,0.6,1.4,1.4,1.4H27c0.8,0,1.4-0.6,1.4-1.4C28.5,65.6,27.8,65,27,65z
		"/>
	<path class="st0" d="M70.1,65H67c-0.8,0-1.4,0.6-1.4,1.4c0,0.8,0.6,1.4,1.4,1.4h3.1c0.8,0,1.4-0.6,1.4-1.4
		C71.5,65.6,70.9,65,70.1,65z"/>
	<path class="st0" d="M57.8,71.1H42.4c-0.8,0-1.4,0.6-1.4,1.4s0.6,1.4,1.4,1.4h15.4c0.8,0,1.4-0.6,1.4-1.4S58.6,71.1,57.8,71.1z"/>
	<path class="st0" d="M36.3,71.1h-3.1c-0.8,0-1.4,0.6-1.4,1.4s0.6,1.4,1.4,1.4h3.1c0.8,0,1.4-0.6,1.4-1.4S37.1,71.1,36.3,71.1z"/>
</g>
</svg>
