<?xml version="1.0" encoding="utf-8"?>
<!-- Generator: Adobe Illustrator 21.0.0, SVG Export Plug-In . SVG Version: 6.00 Build 0)  -->
<svg version="1.1" id="Layer_1" xmlns="http://www.w3.org/2000/svg" xmlns:xlink="http://www.w3.org/1999/xlink" x="0px" y="0px"
	 viewBox="0 0 90 90" style="enable-background:new 0 0 90 90;" xml:space="preserve">
<style type="text/css">
	.st0{fill:#174543;}
</style>
<path class="st0" d="M45.1,0.9c-24.4,0-44,19.6-44,44s19.6,44,44,44s44-19.6,44-44S69.5,0.9,45.1,0.9z M51.5,45.7l15,15
	c0.4,0.4,0.6,1,0.6,1.4c0,0.4-0.2,1-0.6,1.4l-2.8,2.8c-0.4,0.4-1,0.6-1.4,0.6c-0.6,0-1-0.2-1.4-0.6l-15-15c-0.4-0.4-1-0.4-1.4,0
	l-15,15c-0.4,0.4-1,0.6-1.4,0.6c-0.6,0-1-0.2-1.4-0.6l-2.8-2.8c-0.4-0.4-0.6-1-0.6-1.4c0-0.4,0.2-1,0.6-1.4l15-15
	c0.4-0.4,0.4-1,0-1.4l-15-15c-0.4-0.4-0.6-1-0.6-1.4c0-0.4,0.2-1,0.6-1.4l2.8-2.8c0.4-0.4,1-0.6,1.4-0.6c0.4,0,1,0.2,1.4,0.6l15,15
	c0.4,0.4,1,0.4,1.4,0l15-15c0.4-0.4,1-0.6,1.4-0.6c0.6,0,1,0.2,1.4,0.6l2.8,2.8c0.4,0.4,0.6,1,0.6,1.4c0,0.4-0.2,1-0.6,1.4l-15,15
	C51.1,44.5,51.1,45.3,51.5,45.7z"/>
</svg>
