<?xml version="1.0" encoding="utf-8"?>
<!-- Generator: Adobe Illustrator 21.0.0, SVG Export Plug-In . SVG Version: 6.00 Build 0)  -->
<svg version="1.1" id="Layer_1" xmlns="http://www.w3.org/2000/svg" xmlns:xlink="http://www.w3.org/1999/xlink" x="0px" y="0px"
	 viewBox="0 0 90 90" style="enable-background:new 0 0 90 90;" xml:space="preserve">
<style type="text/css">
	.st0{fill:#CAAA74;}
</style>
<g>
	<g>
		<path class="st0" d="M50.5,40.7c-0.1-0.6-0.6-1.1-1.2-1.2c-0.5-0.1-11.5-2.5-17.6,0.4c-1.3,0.6-2.6,1.4-3.9,2.2
			c-4.7,0.3-9.1,2.2-12.5,5.6c-2.4,2.4-4.1,5.3-5,8.6c-0.1,0.6,0,1.1,0.4,1.5c0.3,0.3,0.7,0.5,1.1,0.5c0.1,0,0.3,0,0.4-0.1
			c1.7-0.4,3.4-0.6,5.1-0.5c-0.3,1.4-0.5,3-0.7,4.5c-0.1,1.1-0.1,2.2-0.1,3.1c-3.4-0.6-7.1,0.5-9.7,3.1c-1.3,1.3-2.3,3-2.9,4.8
			c-0.2,0.6,0,1.2,0.4,1.6c0.4,0.4,1,0.6,1.6,0.4c2.6-0.8,5.3-0.1,7,1.7c1.8,1.8,2.4,4.5,1.7,7c-0.2,0.6,0,1.2,0.4,1.6
			c0.3,0.3,0.7,0.5,1.1,0.5c0.2,0,0.3,0,0.5-0.1c1.8-0.5,3.4-1.5,4.8-2.9c2.6-2.6,3.8-6.3,3.2-9.7c1,0,2,0,3.1-0.1
			c1.6-0.1,3.1-0.4,4.6-0.7c0.1,1.7-0.1,3.5-0.5,5.1c-0.1,0.6,0,1.1,0.4,1.5c0.3,0.3,0.7,0.5,1.1,0.5c0.1,0,0.3,0,0.4-0.1
			c3.2-0.9,6.2-2.6,8.6-5c3.4-3.4,5.3-7.8,5.6-12.5c0.9-1.3,1.6-2.6,2.2-3.9l0,0C53,52.2,50.6,41.2,50.5,40.7z M14.4,54.5
			c0.8-1.7,1.9-3.3,3.2-4.6c1.5-1.5,3.3-2.7,5.3-3.5c-2,2.2-3.5,5-4.5,8.1C17,54.4,15.7,54.4,14.4,54.5z M19.3,80.8
			c-0.3,0.3-0.6,0.6-1,0.8c0-2.6-1-5.2-2.9-7c-1.9-1.9-4.4-2.9-7-2.9c0.3-0.4,0.5-0.7,0.8-1c2-2,5-2.8,7.6-2.1
			c0.1,1.8,0.3,2.9,0.3,3c0.1,0.7,0.6,1.2,1.3,1.3c0.1,0,1.2,0.2,3,0.3C22.1,75.8,21.3,78.8,19.3,80.8z M40.1,72.4
			c-1.3,1.3-2.9,2.4-4.6,3.2c0.1-1.3,0.2-2.6,0-3.9c3.1-1,5.9-2.6,8.1-4.6C42.8,69.1,41.6,70.9,40.1,72.4z M42.2,64
			C36.3,70,27,70.4,22.2,70.1l6.7-6.7c0.6-0.6,0.6-1.6,0-2.3c-0.6-0.6-1.6-0.6-2.3,0l-6.7,6.7c-0.2-4.9,0.2-14.2,6.1-20.1
			c0.6-0.6,1.3-1.3,2-1.8L44.1,62C43.5,62.7,42.9,63.4,42.2,64z M47.2,57C47.2,57,47.2,57,47.2,57c-0.4,0.8-0.8,1.6-1.3,2.4L30.6,44
			c0.8-0.5,1.6-0.9,2.4-1.3c4.2-1.9,11.8-0.8,14.6-0.3C48.1,45.2,49.2,52.8,47.2,57z"/>
	</g>
</g>
<g>
	<g>
		<path class="st0" d="M39.4,44.7l-0.6-0.6c-0.6-0.6-1.6-0.6-2.3,0c-0.6,0.6-0.6,1.6,0,2.3l0.6,0.6c0.3,0.3,0.7,0.5,1.1,0.5
			c0.4,0,0.8-0.2,1.1-0.5C40,46.3,40,45.3,39.4,44.7z"/>
	</g>
</g>
<g>
	<g>
		<path class="st0" d="M33.9,57.4c0-0.1-0.1-0.2-0.1-0.3c0-0.1-0.1-0.2-0.1-0.3c-0.1-0.1-0.1-0.2-0.2-0.2c-0.1-0.1-0.2-0.1-0.2-0.2
			c-0.1-0.1-0.2-0.1-0.3-0.1c-0.1,0-0.2-0.1-0.3-0.1c-0.2,0-0.4,0-0.6,0c-0.1,0-0.2,0.1-0.3,0.1c-0.1,0-0.2,0.1-0.3,0.1
			c-0.1,0.1-0.2,0.1-0.2,0.2c-0.1,0.1-0.1,0.2-0.2,0.2c-0.1,0.1-0.1,0.2-0.1,0.3c0,0.1-0.1,0.2-0.1,0.3c0,0.1,0,0.2,0,0.3
			c0,0.1,0,0.2,0,0.3c0,0.1,0.1,0.2,0.1,0.3c0,0.1,0.1,0.2,0.1,0.3c0.1,0.1,0.1,0.2,0.2,0.2c0.1,0.1,0.2,0.1,0.2,0.2
			c0.1,0.1,0.2,0.1,0.3,0.1c0.1,0,0.2,0.1,0.3,0.1c0.1,0,0.2,0,0.3,0c0.1,0,0.2,0,0.3,0c0.1,0,0.2-0.1,0.3-0.1
			c0.1,0,0.2-0.1,0.3-0.1c0.1-0.1,0.2-0.1,0.2-0.2c0.1-0.1,0.1-0.2,0.2-0.2c0.1-0.1,0.1-0.2,0.1-0.3c0-0.1,0.1-0.2,0.1-0.3
			c0-0.1,0-0.2,0-0.3C33.9,57.6,33.9,57.5,33.9,57.4z"/>
	</g>
</g>
<g>
	<g>
		<path class="st0" d="M73.2,8.5c-1.3-1.3-3.1-2-4.9-2c-3.8,0-7,3.1-7,7v29.1c-3.2,0.7-5.6,3.6-5.6,7s2.4,6.3,5.6,7v4.2
			c0,1.3-1,2.3-2.3,2.3c-1.3,0-2.3-1-2.3-2.3v-2.3c0-0.9-0.7-1.6-1.6-1.6c-0.9,0-1.6,0.7-1.6,1.6v2.3c0,3,2.5,5.5,5.5,5.5
			c3,0,5.5-2.5,5.5-5.5v-4.2c3.2-0.7,5.6-3.6,5.6-7s-2.4-6.3-5.6-7V13.4c0-2.1,1.7-3.8,3.8-3.8c1,0,2,0.4,2.7,1.1
			c0.7,0.7,1.1,1.7,1.1,2.7l0,7.2c0,0.9,0.7,1.6,1.6,1.6c0,0,0,0,0,0c0.9,0,1.6-0.7,1.6-1.6l0-7.2C75.3,11.6,74.5,9.8,73.2,8.5z
			 M66.9,49.5c0,2.2-1.8,4-4,4c-2.2,0-4-1.8-4-4s1.8-4,4-4C65.1,45.5,66.9,47.3,66.9,49.5z"/>
	</g>
</g>
<g>
	<g>
		<path class="st0" d="M75.2,26.4c0-0.1-0.1-0.2-0.1-0.3c0-0.1-0.1-0.2-0.1-0.3c-0.1-0.1-0.1-0.2-0.2-0.2c-0.3-0.3-0.7-0.5-1.1-0.5
			c-0.4,0-0.8,0.2-1.1,0.5c-0.1,0.1-0.1,0.2-0.2,0.2c-0.1,0.1-0.1,0.2-0.1,0.3c0,0.1-0.1,0.2-0.1,0.3c0,0.1,0,0.2,0,0.3
			c0,0.1,0,0.2,0,0.3s0.1,0.2,0.1,0.3c0,0.1,0.1,0.2,0.1,0.3c0.1,0.1,0.1,0.2,0.2,0.2c0.1,0.1,0.2,0.1,0.2,0.2
			c0.1,0.1,0.2,0.1,0.3,0.1c0.1,0,0.2,0.1,0.3,0.1c0.1,0,0.2,0,0.3,0c0.1,0,0.2,0,0.3,0c0.1,0,0.2-0.1,0.3-0.1
			c0.1,0,0.2-0.1,0.3-0.1c0.1-0.1,0.2-0.1,0.2-0.2c0.1-0.1,0.1-0.2,0.2-0.2c0.1-0.1,0.1-0.2,0.1-0.3c0-0.1,0.1-0.2,0.1-0.3
			c0-0.1,0-0.2,0-0.3C75.3,26.6,75.3,26.5,75.2,26.4z"/>
	</g>
</g>
<g>
	<g>
		<path class="st0" d="M84.4,4c-0.9,0-1.6,0.7-1.6,1.6v36.9c0,2.1-1.7,3.8-3.8,3.8c-1,0-2-0.4-2.7-1.1c-0.7-0.7-1.1-1.7-1.1-2.7
			l0-9.3c0-0.9-0.7-1.6-1.6-1.6c0,0,0,0,0,0c-0.9,0-1.6,0.7-1.6,1.6l0,9.3c0,1.9,0.7,3.6,2,4.9c1.3,1.3,3.1,2,4.9,2c3.8,0,7-3.1,7-7
			V5.6C86,4.7,85.3,4,84.4,4z"/>
	</g>
</g>
</svg>
