<?xml version="1.0" encoding="UTF-8" standalone="no"?>
<svg
   xmlns:dc="http://purl.org/dc/elements/1.1/"
   xmlns:cc="http://creativecommons.org/ns#"
   xmlns:rdf="http://www.w3.org/1999/02/22-rdf-syntax-ns#"
   xmlns:svg="http://www.w3.org/2000/svg"
   xmlns="http://www.w3.org/2000/svg"
   xmlns:sodipodi="http://sodipodi.sourceforge.net/DTD/sodipodi-0.dtd"
   xmlns:inkscape="http://www.inkscape.org/namespaces/inkscape"
   width="90"
   version="1.1"
   height="90"
   viewBox="0 0 11.25 11.25"
   enable-background="new 0 0 64 64"
   id="svg12"
   sodipodi:docname="down-arrow.svg"
   inkscape:version="0.92.2 (5c3e80d, 2017-08-06)">
  <metadata
     id="metadata18">
    <rdf:RDF>
      <cc:Work
         rdf:about="">
        <dc:format>image/svg+xml</dc:format>
        <dc:type
           rdf:resource="http://purl.org/dc/dcmitype/StillImage" />
        <dc:title></dc:title>
      </cc:Work>
    </rdf:RDF>
  </metadata>
  <defs
     id="defs16" />
  <sodipodi:namedview
     pagecolor="#ffffff"
     bordercolor="#666666"
     borderopacity="1"
     objecttolerance="10"
     gridtolerance="10"
     guidetolerance="10"
     inkscape:pageopacity="0"
     inkscape:pageshadow="2"
     inkscape:window-width="1366"
     inkscape:window-height="706"
     id="namedview14"
     showgrid="false"
     inkscape:measure-start="-169.22,-55.322"
     inkscape:measure-end="0,0"
     inkscape:zoom="2.6074563"
     inkscape:cx="-51.012713"
     inkscape:cy="36.199966"
     inkscape:window-x="-8"
     inkscape:window-y="-8"
     inkscape:window-maximized="1"
     inkscape:current-layer="svg12" />
  <g
     id="g10"
     style="fill:#174543;fill-opacity:1"
     transform="matrix(0.16949153,0,0,0.17261625,0.19175734,0.11490616)">
    <g
       id="g8"
       style="fill:#174543;fill-opacity:1">
      <g
         id="g6"
         style="fill:#174543;fill-opacity:1">
        <path
           d="M 46.74,25.293 32.266,39.768 17.781,25.281 C 17,24.5 15.734,24.5 14.953,25.281 c -0.781,0.779 -0.781,2.047 0,2.828 l 15.879,15.883 c 0.248,0.248 0.588,0.436 0.928,0.525 0.17,0.045 0.344,0.068 0.516,0.068 0.523,0 1.035,-0.207 1.414,-0.586 L 49.569,28.12 c 0.781,-0.781 0.781,-2.047 0,-2.828 -0.781,-0.781 -2.048,-0.78 -2.829,10e-4 z"
           data-original="#000000"
           class=""
           id="path2"
           style="fill:#174543;fill-opacity:1"
           inkscape:connector-curvature="0" />
        <path
           d="M 32,0 C 14.355,0 0,14.355 0,32 0,49.645 14.355,64 32,64 49.645,64 64,49.645 64,32 64,14.355 49.645,0 32,0 Z m 0,60 C 16.561,60 4,47.439 4,32 4,16.561 16.561,4 32,4 47.439,4 60,16.561 60,32 60,47.439 47.439,60 32,60 Z"
           data-original="#000000"
           class=""
           id="path4"
           style="fill:#174543;fill-opacity:1"
           inkscape:connector-curvature="0" />
      </g>
    </g>
  </g>
</svg>
