<?xml version="1.0" encoding="utf-8"?>
<!-- Generator: Adobe Illustrator 21.0.0, SVG Export Plug-In . SVG Version: 6.00 Build 0)  -->
<svg version="1.1" id="Layer_1" xmlns="http://www.w3.org/2000/svg" xmlns:xlink="http://www.w3.org/1999/xlink" x="0px" y="0px"
	 viewBox="0 0 90 90" style="enable-background:new 0 0 90 90;" xml:space="preserve">
<style type="text/css">
	.st0{fill:#174543;}
</style>
<path class="st0" d="M37.3,45.1l19.2-19.2c0.7-0.7,0.7-1.9,0-2.6c-0.7-0.7-1.9-0.7-2.6,0L33.4,43.8c-0.7,0.7-0.7,1.9,0,2.6
	l20.5,20.5c0.4,0.4,0.8,0.5,1.3,0.5c0.5,0,0.9-0.2,1.3-0.5c0.7-0.7,0.7-1.9,0-2.6L37.3,45.1z"/>
<g>
	<path class="st0" d="M0.8,45.1C0.8,20.8,20.6,1,44.9,1C69.2,1,89,20.8,89,45.1c0,24.3-19.8,44.1-44.1,44.1
		C20.6,89.2,0.8,69.4,0.8,45.1z M4.5,45.1c0,22.3,18.1,40.4,40.4,40.4c22.3,0,40.4-18.1,40.4-40.4c0-22.3-18.1-40.4-40.4-40.4
		C22.6,4.7,4.5,22.8,4.5,45.1z"/>
</g>
</svg>
