<?xml version="1.0" encoding="UTF-8" standalone="no"?>
<svg
   xmlns:dc="http://purl.org/dc/elements/1.1/"
   xmlns:cc="http://creativecommons.org/ns#"
   xmlns:rdf="http://www.w3.org/1999/02/22-rdf-syntax-ns#"
   xmlns:svg="http://www.w3.org/2000/svg"
   xmlns="http://www.w3.org/2000/svg"
   xmlns:sodipodi="http://sodipodi.sourceforge.net/DTD/sodipodi-0.dtd"
   xmlns:inkscape="http://www.inkscape.org/namespaces/inkscape"
   version="1.1"
   id="Capa_1"
   x="0px"
   y="0px"
   viewBox="0 0 22.678066 22.678066"
   xml:space="preserve"
   width="30"
   height="30"
   class=""
   sodipodi:docname="InfantPM.svg"
   inkscape:version="0.92.2 (5c3e80d, 2017-08-06)"><metadata
     id="metadata19"><rdf:RDF><cc:Work
         rdf:about=""><dc:format>image/svg+xml</dc:format><dc:type
           rdf:resource="http://purl.org/dc/dcmitype/StillImage" /><dc:title></dc:title></cc:Work></rdf:RDF></metadata><defs
     id="defs17" /><sodipodi:namedview
     pagecolor="#ffffff"
     bordercolor="#666666"
     borderopacity="1"
     objecttolerance="10"
     gridtolerance="10"
     guidetolerance="10"
     inkscape:pageopacity="0"
     inkscape:pageshadow="2"
     inkscape:window-width="1366"
     inkscape:window-height="706"
     id="namedview15"
     showgrid="false"
     inkscape:zoom="7.375"
     inkscape:cx="-1.053912"
     inkscape:cy="22.540823"
     inkscape:window-x="-8"
     inkscape:window-y="-8"
     inkscape:window-maximized="1"
     inkscape:current-layer="Capa_1" /><g
     id="g12"
     transform="matrix(0.05697114,0,0,0.06378487,0.40999893,-0.99552038)"
     style="fill:#ab761c;fill-opacity:1"><g
       id="g10"
       style="fill:#ab761c;fill-opacity:1"><circle
         cx="112.809"
         cy="233.16901"
         r="15.368"
         data-original="#000000"
         class="active-path"
         data-old_color="#000000fill:#000000fill:#000000fill:#000000fill:#000000fill:#000000fill:#000000fill:#000000fill:#000000fill:#000000fill:#000000fill:#000000fill:#000000fill:#000000fill:#000000fill:#000000fill:#000000fill:#000000fill:#000000fill:#000000fill:#000000fill:#000000fill:#000000fill:#000000fill:#000000fill:#000000fill:#000000fill:#000000fill:#000000fill:#000000fill:#000000fill:#000000fill:#000000fill:#000000fill:#000000fill:#000000"
         id="circle2"
         style="fill:#ab761c;fill-opacity:1" /><circle
         cx="274.229"
         cy="233.16901"
         r="15.368"
         data-original="#000000"
         class="active-path"
         data-old_color="#000000fill:#000000fill:#000000fill:#000000fill:#000000fill:#000000fill:#000000fill:#000000fill:#000000fill:#000000fill:#000000fill:#000000fill:#000000fill:#000000fill:#000000fill:#000000fill:#000000fill:#000000fill:#000000fill:#000000fill:#000000fill:#000000fill:#000000fill:#000000fill:#000000fill:#000000fill:#000000fill:#000000fill:#000000fill:#000000fill:#000000fill:#000000fill:#000000fill:#000000fill:#000000fill:#000000"
         id="circle4"
         style="fill:#ab761c;fill-opacity:1" /><path
         d="m 387.039,226.647 c 0,-22.261 -16.136,-40.811 -37.324,-44.602 v -6.717 c 0,-86.127 -70.069,-156.196 -156.195,-156.196 -86.127,0 -156.196,70.069 -156.196,156.196 v 6.717 C 16.136,185.837 0,204.387 0,226.647 c 0,22.453 16.414,41.134 37.871,44.7 3.02,34.414 18.765,59.834 46.942,75.653 25.058,14.068 60.615,20.906 108.707,20.906 48.091,0 83.649,-6.839 108.707,-20.906 28.176,-15.819 43.921,-41.238 46.941,-75.653 21.457,-3.565 37.871,-22.247 37.871,-44.7 z m -371.039,0 c 0,-13.395 9.032,-24.713 21.323,-28.205 v 56.41 C 25.032,251.361 16,240.043 16,226.647 Z m 317.715,32.11 c 0,35.135 -12.862,59.436 -39.321,74.291 -22.603,12.69 -55.599,18.858 -100.874,18.858 -45.275,0 -78.272,-6.168 -100.874,-18.858 -26.46,-14.855 -39.322,-39.156 -39.322,-74.291 v -83.429 c 0,-63.309 42.185,-116.941 99.918,-134.29 43.983,0.556 67.407,32.306 67.407,55.296 0,17.608 -14.325,31.934 -31.934,31.934 -13.204,0 -23.947,-10.743 -23.947,-23.947 0,-9.681 7.876,-17.558 17.558,-17.558 4.418,0 8,-3.582 8,-8 0,-4.418 -3.582,-8 -8,-8 -18.504,0 -33.558,15.054 -33.558,33.558 0,22.027 17.92,39.947 39.947,39.947 26.431,0 47.934,-21.503 47.934,-47.934 0,-16.605 -8.343,-34.47 -22.317,-47.79 -5.59,-5.328 -11.95,-9.807 -18.89,-13.387 76.42,1.034 138.273,63.51 138.273,140.171 z m 16,-3.904 v -56.41 c 12.292,3.492 21.324,14.81 21.324,28.205 0,13.395 -9.033,24.713 -21.324,28.205 z"
         data-original="#000000"
         class="active-path"
         data-old_color="#000000fill:#000000fill:#000000fill:#000000fill:#000000fill:#000000fill:#000000fill:#000000fill:#000000fill:#000000fill:#000000fill:#000000fill:#000000fill:#000000fill:#000000fill:#000000fill:#000000fill:#000000fill:#000000fill:#000000fill:#000000fill:#000000fill:#000000fill:#000000fill:#000000fill:#000000fill:#000000fill:#000000fill:#000000fill:#000000fill:#000000fill:#000000fill:#000000fill:#000000fill:#000000fill:#000000"
         id="path6"
         inkscape:connector-curvature="0"
         style="fill:#ab761c;fill-opacity:1" /><path
         d="m 224.459,255.203 c -17.059,17.061 -44.82,17.061 -61.879,0 -3.125,-3.124 -8.189,-3.124 -11.314,0 -3.124,3.124 -3.124,8.19 0,11.314 11.649,11.649 26.952,17.474 42.254,17.474 15.302,0 30.604,-5.825 42.254,-17.474 3.124,-3.124 3.124,-8.19 0,-11.314 -3.126,-3.124 -8.19,-3.124 -11.315,0 z"
         data-original="#000000"
         class="active-path"
         data-old_color="#000000fill:#000000fill:#000000fill:#000000fill:#000000fill:#000000fill:#000000fill:#000000fill:#000000fill:#000000fill:#000000fill:#000000fill:#000000fill:#000000fill:#000000fill:#000000fill:#000000fill:#000000fill:#000000fill:#000000fill:#000000fill:#000000fill:#000000fill:#000000fill:#000000fill:#000000fill:#000000fill:#000000fill:#000000fill:#000000fill:#000000fill:#000000fill:#000000fill:#000000fill:#000000fill:#000000"
         id="path8"
         inkscape:connector-curvature="0"
         style="fill:#ab761c;fill-opacity:1" /></g></g></svg>