<?xml version="1.0" encoding="utf-8"?>
<!-- Generator: Adobe Illustrator 21.0.0, SVG Export Plug-In . SVG Version: 6.00 Build 0)  -->
<svg version="1.1" id="Layer_1" xmlns="http://www.w3.org/2000/svg" xmlns:xlink="http://www.w3.org/1999/xlink" x="0px" y="0px"
	 viewBox="0 0 60 60" style="enable-background:new 0 0 60 60;" xml:space="preserve">
<style type="text/css">
	.st0{fill:#174543;}
</style>
<g>
	<path class="st0" d="M41.1,22c-0.9,0-1.6-0.7-1.6-1.6v-3.2c0-0.9,0.7-1.6,1.6-1.6h3.2c0.9,0,1.6,0.7,1.6,1.6v3.2
		c0,0.9-0.7,1.6-1.6,1.6H41.1z"/>
	<path class="st0" d="M29.7,25.5c-1.2,0-2.3,0.3-3.2,0.9c0.3-0.1,0.6-0.2,0.9-0.2c1.7,0,3.1,1.4,3.1,3.1c0,1.7-1.4,3.1-3.1,3.1
		s-3.1-1.4-3.1-3.1c0-0.3,0.1-0.6,0.2-0.9c-0.6,0.9-0.9,2-0.9,3.2c0,3.4,2.8,6.2,6.2,6.2c3.4,0,6.2-2.8,6.2-6.2
		C35.9,28.3,33.1,25.5,29.7,25.5z"/>
	<g>
		<path class="st0" d="M29.7,22c5.4,0,9.7,4.3,9.7,9.7s-4.4,9.7-9.7,9.7c-5.4,0-9.7-4.3-9.7-9.7S24.4,22,29.7,22 M29.7,18.8
			c-7.1,0-13,5.8-13,13s5.8,13,13,13s13-5.8,13-13S36.9,18.8,29.7,18.8L29.7,18.8z"/>
	</g>
	<path class="st0" d="M42.9,10.7H16.6c-4.4,0-7.9,3.5-7.9,7.9v26.3c0,4.4,3.5,7.9,7.9,7.9h26.3c4.4,0,7.9-3.5,7.9-7.9V18.6
		C50.8,14.2,47.2,10.7,42.9,10.7z M47.5,25.2H36.9c1.5,1.7,2.5,4,2.5,6.5c0,5.4-4.4,9.7-9.7,9.7c-5.4,0-9.7-4.3-9.7-9.7
		c0-2.5,0.9-4.8,2.5-6.5H11.9v-6.7c0-2.6,2.1-4.7,4.7-4.7h26.3c2.6,0,4.7,2.1,4.7,4.7V25.2z"/>
</g>
</svg>
