<?xml version="1.0" encoding="UTF-8" standalone="no"?>
<!-- Generator: Adobe Illustrator 21.0.0, SVG Export Plug-In . SVG Version: 6.00 Build 0)  -->

<svg
   xmlns:dc="http://purl.org/dc/elements/1.1/"
   xmlns:cc="http://creativecommons.org/ns#"
   xmlns:rdf="http://www.w3.org/1999/02/22-rdf-syntax-ns#"
   xmlns:svg="http://www.w3.org/2000/svg"
   xmlns="http://www.w3.org/2000/svg"
   xmlns:sodipodi="http://sodipodi.sourceforge.net/DTD/sodipodi-0.dtd"
   xmlns:inkscape="http://www.inkscape.org/namespaces/inkscape"
   version="1.1"
   id="Layer_1"
   x="0px"
   y="0px"
   viewBox="0 0 170 170"
   xml:space="preserve"
   sodipodi:docname="Sport_Fishing.svg"
   width="170"
   height="170"
   inkscape:version="0.92.2 (5c3e80d, 2017-08-06)"><metadata
     id="metadata99"><rdf:RDF><cc:Work
         rdf:about=""><dc:format>image/svg+xml</dc:format><dc:type
           rdf:resource="http://purl.org/dc/dcmitype/StillImage" /><dc:title></dc:title></cc:Work></rdf:RDF></metadata><defs
     id="defs97" /><sodipodi:namedview
     pagecolor="#ffffff"
     bordercolor="#666666"
     borderopacity="1"
     objecttolerance="10"
     gridtolerance="10"
     guidetolerance="10"
     inkscape:pageopacity="0"
     inkscape:pageshadow="2"
     inkscape:window-width="1366"
     inkscape:window-height="706"
     id="namedview95"
     showgrid="false"
     inkscape:zoom="2.5851852"
     inkscape:cx="32.521137"
     inkscape:cy="68.02308"
     inkscape:window-x="-8"
     inkscape:window-y="-8"
     inkscape:window-maximized="1"
     inkscape:current-layer="g92" /><style
     type="text/css"
     id="style2">
	.st0{fill:#AC771F;}
	.st1{fill:#004842;}
	.st2{fill:#FFFFFF;}
	.st3{fill:#004542;}
</style><g
     id="g92"><g
       id="g38"
       transform="matrix(1.5367229,0,0,1.5218184,-124.78579,0.20543889)"><g
         id="g6"><path
           class="st0"
           d="m 174.6,91.7 c -0.4,0 -0.7,-0.1 -1,-0.4 -0.6,-0.6 -0.5,-1.5 0,-2 9.4,-9.1 14.7,-21.4 15,-34.5 C 189.2,27.4 167.4,4.6 140,4 c -9.4,-0.2 -18.6,2.2 -26.6,7 -0.7,0.4 -1.6,0.2 -2,-0.5 -0.4,-0.7 -0.2,-1.6 0.5,-2 8.5,-5.1 18.2,-7.6 28.1,-7.4 29,0.6 52.1,24.8 51.4,53.8 -0.3,13.9 -6,26.8 -15.9,36.5 -0.2,0.2 -0.5,0.3 -0.9,0.3 z"
           id="path4"
           inkscape:connector-curvature="0"
           style="fill:#ac771f" /></g><path
         class="st1"
         d="m 167.1,97.3 c -0.2,-0.5 -0.7,-0.9 -1.2,-1 -0.2,0 -5.4,-0.6 -10.1,-0.2 -2.1,0.2 -4.1,-0.7 -5.4,-2.3 -1,-1.3 -1.5,-3 -1.3,-4.7 0.4,-3 0.9,-7 1,-9.5 0,-0.6 -0.3,-1.1 -0.8,-1.4 -0.5,-0.3 -1.1,-0.2 -1.6,0.2 -0.5,0.4 -12.3,10.2 -15.3,24.6 C 129,101.3 121,95.5 120.1,78.7 120,77.4 120,76.1 120,74.9 c 3.2,-2.6 4.9,-5.6 4.9,-5.6 0.2,-0.4 0.2,-0.8 0.1,-1.2 -0.2,-0.4 -0.5,-0.7 -0.9,-0.8 l -3.6,-1 c 0.2,-1 0.4,-2 0.6,-3 6.1,1.4 10.6,-0.3 13.4,-2.1 3.3,-2.1 4.9,-4.6 5,-4.8 0.2,-0.4 0.3,-0.8 0.2,-1.2 -0.1,-0.4 -0.4,-0.7 -0.8,-0.9 l -11.8,-4.7 c 4.2,-6.2 10.1,-11.4 18,-15.3 0.6,-0.3 0.9,-0.9 0.8,-1.6 -0.1,-0.6 -0.7,-1.1 -1.3,-1.1 l -5.5,-0.3 c -0.2,-0.1 -0.4,-0.2 -0.7,-0.2 0,0 0,0 0,0 0,0 -0.2,0 -0.5,0 0.9,-3.4 2.3,-9.8 0.2,-12.7 -0.7,-1 -1.7,-1.5 -3,-1.5 0,0 0,0 0,0 -0.9,-0.1 -10,-0.5 -20.2,3.5 -1.9,0.7 -3.8,1.6 -5.8,2.8 -3.7,-0.7 -3.4,-7.3 -3.4,-7.4 0,-0.6 -0.3,-1.1 -0.8,-1.3 -0.5,-0.3 -1.1,-0.2 -1.5,0.1 -0.8,0.6 -18.6,14.6 -21.2,36.5 -1.6,13 2.6,26 12.3,38.6 0,0 0,0 0.1,0.1 0.2,0.3 0.4,0.5 0.6,0.8 0,0 0.1,0.1 0.1,0.1 8.1,10.3 21.4,16.9 39.6,19.9 0.2,0 1.2,0.2 3,0.2 5.5,0 17.8,-1.3 28.8,-12 0.5,-0.4 0.6,-1 0.4,-1.5 z"
         id="path8"
         inkscape:connector-curvature="0"
         style="fill:#004842" /><path
         class="st2"
         d="m 150.3,97.5 c -2,0.8 -4.7,1.9 -7.6,3.3 1.4,-1.9 2.8,-4.2 4.4,-7.2 0.3,0.7 0.7,1.4 1.2,2 0.5,0.8 1.2,1.4 2,1.9 z"
         id="path10"
         inkscape:connector-curvature="0"
         style="fill:#ffffff" /><path
         class="st2"
         d="m 102.5,94 c -1.7,-8.4 -1.6,-15.7 0.5,-22 0.1,3.1 0.6,6.9 1.7,10.8 2.3,7.8 7.8,17.5 20.8,22.9 -9.5,-2.6 -17.2,-6.5 -23,-11.7 z"
         id="path12"
         inkscape:connector-curvature="0"
         style="fill:#ffffff" /><path
         class="st2"
         d="m 147,83.2 c -0.2,1.8 -0.4,3.7 -0.6,5.4 -4.8,10.3 -8.9,14.3 -11.1,15.9 1.7,-9.8 8,-17.5 11.7,-21.3 z"
         id="path14"
         inkscape:connector-curvature="0"
         style="fill:#ffffff" /><path
         class="st2"
         d="m 117.5,78.9 c 0.8,14.2 6.2,21.2 10.6,24.6 -10.5,-3.9 -17.5,-11 -20.5,-21.5 -0.4,-1.4 -0.7,-2.7 -0.9,-4 1.4,0.4 2.7,0.5 4,0.5 2.6,0 4.9,-0.7 6.9,-1.8 -0.2,0.8 -0.2,1.4 -0.1,2.2 z"
         id="path16"
         inkscape:connector-curvature="0"
         style="fill:#ffffff" /><path
         class="st2"
         d="m 118.4,72.8 c -3.5,2.8 -7.3,3.6 -11.4,2.4 -1.2,-3.2 -1.3,-6.7 -0.1,-10 l 14.7,4.2 c -0.7,1 -1.8,2.3 -3.2,3.4 z"
         id="path18"
         inkscape:connector-curvature="0"
         style="fill:#ffffff" /><path
         class="st2"
         d="m 108.1,62.6 c 0.8,-1 1.7,-2 2.7,-3 4,-3.8 8.4,-6 11.3,-7.1 -1.3,2.6 -2.4,5.3 -3.2,8.2 0,0.1 -0.1,0.2 -0.1,0.3 0,0.1 -0.1,0.2 -0.1,0.4 -0.4,1.3 -0.7,2.7 -0.9,4.1 z"
         id="path20"
         inkscape:connector-curvature="0"
         style="fill:#ffffff" /><path
         class="st2"
         d="m 136.3,56.1 c -2,2.2 -6.7,5.9 -14.1,4.2 0.9,-2.9 2.1,-5.7 3.6,-8.4 z"
         id="path22"
         inkscape:connector-curvature="0"
         style="fill:#ffffff" /><path
         class="st2"
         d="m 124.3,48.7 c -1.3,0.3 -8.7,2.5 -15.3,8.7 -0.4,0.4 -0.8,0.8 -1.2,1.2 3.2,-9.4 8.9,-16.3 17,-20.6 2.4,-1.3 4.7,-2.2 6.7,-2.8 V 40 c -2.8,2.7 -5.2,5.6 -7.2,8.7 z"
         id="path24"
         inkscape:connector-curvature="0"
         style="fill:#ffffff" /><path
         class="st2"
         d="m 134.4,37.7 v -3.2 c 1.4,-0.3 2.5,-0.4 3.2,-0.5 l 2,0.1 c -1.9,1.1 -3.6,2.3 -5.2,3.6 z"
         id="path26"
         inkscape:connector-curvature="0"
         style="fill:#ffffff" /><path
         class="st2"
         d="m 135.2,19.8 c 0.4,0 0.6,0.1 0.7,0.3 1.2,1.6 0.2,7.4 -1,11.3 -0.2,0 -0.4,0.1 -0.5,0.1 V 19.8 c 0.4,0 0.6,0 0.7,0 0,0 0.1,0 0.1,0 z"
         id="path28"
         inkscape:connector-curvature="0"
         style="fill:#ffffff" /><path
         class="st2"
         d="m 85.1,51.5 c 2,-16.3 13.2,-28.4 18,-32.8 0.1,0.5 0.2,1.1 0.3,1.7 0.6,2.1 1.5,3.6 2.9,4.6 -7.6,5.1 -15.2,13.7 -18.7,28.2 -0.1,0.4 -1.8,7 -1,15.6 C 85,63.1 84.5,57.3 85.1,51.5 Z"
         id="path30"
         inkscape:connector-curvature="0"
         style="fill:#ffffff" /><path
         class="st2"
         d="m 97,88.1 c 0,0 0,0 0,0 C 96.5,87.4 96,86.7 95.5,86 85.9,71.1 90.3,54.1 90.4,53.9 94.1,38.7 102.7,28.4 116,23.1 c 6.2,-2.4 12,-3.1 15.5,-3.3 v 12.4 c -2.3,0.7 -5.1,1.6 -8,3.2 -7.2,3.8 -16.5,11.8 -20.2,28.1 0,0 0,0 0,0.1 0,0.1 -0.1,0.4 -0.1,1 -5,8.4 -5.4,17.9 -4.3,25.9 -0.6,-0.8 -1.3,-1.6 -1.9,-2.4 z"
         id="path32"
         inkscape:connector-curvature="0"
         style="fill:#ffffff" /><path
         class="st2"
         d="m 135.8,107.8 c 7.7,-4.8 16.8,-8.2 18.5,-8.8 0.6,0.1 1.2,0.1 1.7,0 2.1,-0.2 4.4,-0.1 6.2,-0.1 -11.4,9.5 -23.9,9.1 -26.4,8.9 z"
         id="path34"
         inkscape:connector-curvature="0"
         style="fill:#ffffff" /><circle
         class="st1"
         cx="123.4"
         cy="27.4"
         r="2.0999999"
         id="circle36"
         style="fill:#004842" /></g></g></svg>