<?xml version="1.0" encoding="utf-8"?>
<!-- Generator: Adobe Illustrator 21.0.0, SVG Export Plug-In . SVG Version: 6.00 Build 0)  -->
<svg version="1.1" id="Layer_1" xmlns="http://www.w3.org/2000/svg" xmlns:xlink="http://www.w3.org/1999/xlink" x="0px" y="0px"
	 viewBox="0 0 90 90" style="enable-background:new 0 0 90 90;" xml:space="preserve">
<style type="text/css">
	.st0{fill:#CAAA74;}
</style>
<g>
	<g>
		<path class="st0" d="M70.6,51.9c0,0-11.4-7-11.4-7c-0.8-0.5-1.9-0.2-2.4,0.6c-0.5,0.8-0.2,1.9,0.6,2.4c0,0,11.4,7,11.4,7
			c0.8,0.5,1.9,0.2,2.4-0.6C71.7,53.5,71.5,52.4,70.6,51.9z"/>
	</g>
</g>
<g>
	<g>
		<path class="st0" d="M52.4,40.9c-1.1,0-2,1.1-1.7,2.2c0.1,0.4,0.4,0.8,0.8,1.1c0.3,0.2,0.6,0.3,0.9,0.3c0.6,0,1.2-0.3,1.5-0.8
			C54.5,42.5,53.7,40.9,52.4,40.9z"/>
	</g>
</g>
<g>
	<g>
		<path class="st0" d="M34.2,45.4c-0.5-0.8-1.6-1-2.4-0.5c0,0-11.3,7.1-11.3,7.1c-0.8,0.5-1.1,1.6-0.5,2.4c0.3,0.5,0.9,0.8,1.5,0.8
			c0.3,0,0.7-0.1,0.9-0.2c0,0,11.3-7.1,11.3-7.1C34.4,47.3,34.7,46.2,34.2,45.4z"/>
	</g>
</g>
<g>
	<g>
		<path class="st0" d="M38.6,40.8c-0.8,0-1.5,0.6-1.7,1.4c-0.2,1.1,0.6,2.1,1.7,2.1c0.8,0,1.5-0.6,1.7-1.4
			C40.6,41.9,39.7,40.8,38.6,40.8z"/>
	</g>
</g>
<g>
	<g>
		<path class="st0" d="M89.6,80.1c-0.6-0.7-1.7-0.8-2.5-0.2c-1.9,1.6-3.6,3.3-6.1,4c-2.7,0.8-5.3,0.2-7.8-1.1L82.4,52
			c0.2-0.8-0.1-1.6-0.8-2l-8.5-5.1v-15c0-1-0.8-1.8-1.8-1.8h-3.5v-5.3c0-1-0.8-1.8-1.8-1.8h-5.5v-5.3c0-1-0.8-1.8-1.8-1.8h-8.5V1.8
			c0-1-0.8-1.8-1.8-1.8h-7c-1,0-1.8,0.8-1.8,1.8v12.3h-8.5c-1,0-1.8,0.8-1.8,1.8v5.3h-5.5c-1,0-1.8,0.8-1.8,1.8v5.3h-3.5
			c-1,0-1.8,0.8-1.8,1.8v15L8.4,50c-0.7,0.4-1,1.2-0.8,2c0,0,9.1,30.7,9.1,30.7c-0.2-0.5-3-0.9-3.5-0.9c-5.1-0.7-9,1.9-12.7,5.1
			c-0.7,0.6-0.8,1.7-0.2,2.5c0.6,0.7,1.7,0.8,2.5,0.2c3.8-3.3,8.1-5.8,13.1-3.3c4.5,2.3,9.3,3.2,14,0.8c3.8-2,7.5-3.7,11.8-1.7
			l4.4,2.1c3.7,1.8,8,1.7,11.7-0.1c2.3-1.1,4.6-2.7,7.2-2.8c2.6-0.2,5,0.8,7.3,1.9c3,1.5,6.5,1.8,9.7,0.9c2.9-0.8,5.1-2.7,7.3-4.7
			C90.1,81.9,90.2,80.8,89.6,80.1z M69.6,31.6v11.1L51.3,31.6H69.6z M43.2,3.5h3.5v10.5h-3.5V3.5z M33,17.6H57v3.5H33V17.6z
			 M20.4,31.6h18.3L20.4,42.7V31.6z M43.2,82.1c0-0.3-2.5-0.9-2.8-1c-3.1-0.7-6.3-0.2-9.1,1.2c-2,1.1-4,2.3-6.3,2.6c0,0,0,0,0,0
			c-1.3,0.2-2.7,0.1-4-0.3l-9.6-32.3L43.2,33C43.2,33,43.2,82.1,43.2,82.1z M25.7,28.1v-3.5h38.7v3.5H25.7z M70,81.4
			c0-0.5-4.9-0.5-5.3-0.5c-3.1,0.3-5.7,1.9-8.4,3.2c-3.2,1.6-6.5,1.1-9.6-0.3V33l31.9,19.3L70,81.4z"/>
	</g>
</g>
</svg>
