<?xml version="1.0" encoding="utf-8"?>
<!-- Generator: Adobe Illustrator 21.0.0, SVG Export Plug-In . SVG Version: 6.00 Build 0)  -->
<svg version="1.1" id="Layer_1" xmlns="http://www.w3.org/2000/svg" xmlns:xlink="http://www.w3.org/1999/xlink" x="0px" y="0px"
	 viewBox="0 0 60 60" style="enable-background:new 0 0 60 60;" xml:space="preserve">
<style type="text/css">
	.st0{fill:#174543;}
</style>
<g>
	<path id="YouTube" class="st0" d="M43,41.3h-2.7l0-1.6c0-0.7,0.6-1.3,1.3-1.3h0.2c0.7,0,1.3,0.6,1.3,1.3L43,41.3z M33,37.9
		c-0.7,0-1.2,0.5-1.2,1v7.5c0,0.6,0.6,1,1.2,1c0.7,0,1.2-0.5,1.2-1V39C34.2,38.4,33.7,37.9,33,37.9z M49.3,33.7v14.4
		c0,3.4-3,6.3-6.6,6.3H15.4c-3.7,0-6.6-2.8-6.6-6.3V33.7c0-3.4,3-6.3,6.6-6.3h27.3C46.3,27.5,49.3,30.3,49.3,33.7z M17.2,49.6
		l0-15.1l3.4,0v-2.2l-9,0v2.2l2.8,0v15.2H17.2z M27.3,36.8h-2.8v8.1c0,1.2,0.1,1.8,0,2c-0.2,0.6-1.3,1.3-1.7,0.1c-0.1-0.2,0-0.9,0-2
		l0-8.1H20l0,8c0,1.2,0,2.1,0,2.6c0.1,0.7,0,1.6,0.7,2.1c1.3,0.9,3.7-0.1,4.3-1.4l0,1.7l2.3,0L27.3,36.8L27.3,36.8z M36.3,46l0-6.7
		c0-2.6-1.9-4.1-4.5-2l0-5l-2.8,0l0,17.2l2.3,0l0.2-1.1C34.5,51.1,36.3,49.3,36.3,46z M45.2,45.1l-2.1,0c0,0.1,0,0.2,0,0.3v1.2
		c0,0.6-0.5,1.1-1.2,1.1h-0.4c-0.6,0-1.2-0.5-1.2-1.1v-0.1v-1.3v-1.7h4.8v-1.8c0-1.3,0-2.7-0.1-3.4c-0.3-2.4-3.7-2.8-5.4-1.6
		c-0.5,0.4-0.9,0.9-1.2,1.6C38.2,39,38,39.9,38,41.1v4C38,51.8,46.1,50.8,45.2,45.1z M34.3,23.4c0.1,0.4,0.4,0.6,0.7,0.9
		c0.3,0.2,0.7,0.3,1.2,0.3c0.4,0,0.8-0.1,1.1-0.3c0.3-0.2,0.6-0.6,0.8-1L38,24.3h3.1V10.9h-2.5v10.4c0,0.6-0.5,1-1,1
		c-0.6,0-1-0.5-1-1V10.9H34v9c0,1.1,0,1.9,0.1,2.3C34.1,22.6,34.2,23,34.3,23.4z M24.8,15.8c0-1.3,0.1-2.3,0.3-3
		c0.2-0.7,0.6-1.3,1.2-1.7c0.6-0.4,1.3-0.7,2.1-0.7c0.7,0,1.4,0.1,1.9,0.4c0.5,0.3,0.9,0.6,1.2,1.1c0.3,0.5,0.5,0.9,0.6,1.4
		c0.1,0.5,0.2,1.2,0.2,2.2v3.4c0,1.2,0,2.2-0.1,2.7c-0.1,0.6-0.3,1.1-0.6,1.6c-0.3,0.5-0.7,0.9-1.2,1.1c-0.5,0.2-1.1,0.4-1.7,0.4
		c-0.7,0-1.3-0.1-1.8-0.3c-0.5-0.2-0.9-0.5-1.2-0.9c-0.3-0.4-0.5-0.9-0.6-1.5c-0.1-0.6-0.2-1.5-0.2-2.6L24.8,15.8L24.8,15.8z
		 M27.3,21.1c0,0.8,0.6,1.4,1.2,1.4c0.7,0,1.2-0.6,1.2-1.4V14c0-0.8-0.6-1.4-1.2-1.4c-0.7,0-1.2,0.6-1.2,1.4V21.1z M18.6,24.7h3
		l0-10.3L25,5.7h-3.2l-1.9,6.5L18,5.7h-3.2l3.7,8.8L18.6,24.7z"/>
</g>
</svg>
