<?xml version="1.0" encoding="UTF-8" standalone="no"?>
<svg
   xmlns:dc="http://purl.org/dc/elements/1.1/"
   xmlns:cc="http://creativecommons.org/ns#"
   xmlns:rdf="http://www.w3.org/1999/02/22-rdf-syntax-ns#"
   xmlns:svg="http://www.w3.org/2000/svg"
   xmlns="http://www.w3.org/2000/svg"
   xmlns:sodipodi="http://sodipodi.sourceforge.net/DTD/sodipodi-0.dtd"
   xmlns:inkscape="http://www.inkscape.org/namespaces/inkscape"
   version="1.1"
   id="Layer_1"
   x="0px"
   y="0px"
   viewBox="0 0 150 90"
   xml:space="preserve"
   width="150"
   height="90"
   sodipodi:docname="right.svg"
   inkscape:version="0.92.2 (5c3e80d, 2017-08-06)"><metadata
     id="metadata15"><rdf:RDF><cc:Work
         rdf:about=""><dc:format>image/svg+xml</dc:format><dc:type
           rdf:resource="http://purl.org/dc/dcmitype/StillImage" /><dc:title></dc:title></cc:Work></rdf:RDF></metadata><defs
     id="defs13" /><sodipodi:namedview
     pagecolor="#ffffff"
     bordercolor="#666666"
     borderopacity="1"
     objecttolerance="10"
     gridtolerance="10"
     guidetolerance="10"
     inkscape:pageopacity="0"
     inkscape:pageshadow="2"
     inkscape:window-width="1366"
     inkscape:window-height="706"
     id="namedview11"
     showgrid="false"
     inkscape:zoom="1.84375"
     inkscape:cx="-15.073747"
     inkscape:cy="36.367041"
     inkscape:window-x="-8"
     inkscape:window-y="-8"
     inkscape:window-maximized="1"
     inkscape:current-layer="Layer_1" /><g
     id="g8"
     transform="matrix(0.28601747,0,0,0.2515888,2.169488,-19.695338)"><g
       id="g6"><g
         id="g4"><path
           d="m 508.875,248.458 -160,-160 c -4.167,-4.167 -10.917,-4.167 -15.083,0 -4.167,4.167 -4.167,10.917 0,15.083 L 475.584,245.333 H 10.667 C 4.771,245.333 0,250.104 0,256 c 0,5.896 4.771,10.667 10.667,10.667 H 475.584 L 333.792,408.458 c -4.167,4.167 -4.167,10.917 0,15.083 2.083,2.083 4.813,3.125 7.542,3.125 2.729,0 5.458,-1.042 7.542,-3.125 l 160,-160 c 4.166,-4.166 4.166,-10.916 -10e-4,-15.083 z"
           data-original="#000000"
           class="active-path"
           data-old_color="#F00D0D"
           id="path2"
           inkscape:connector-curvature="0"
           style="fill:#ffffff" /></g></g></g></svg>