<?xml version="1.0" encoding="utf-8"?>
<!-- Generator: Adobe Illustrator 21.0.0, SVG Export Plug-In . SVG Version: 6.00 Build 0)  -->
<svg version="1.1" id="Layer_1" xmlns="http://www.w3.org/2000/svg" xmlns:xlink="http://www.w3.org/1999/xlink" x="0px" y="0px"
	 viewBox="0 0 60 60" style="enable-background:new 0 0 60 60;" xml:space="preserve">
<style type="text/css">
	.st0{fill:#FFFFFF;}
</style>
<g>
	<g>
		<path class="st0" d="M59,30C59,14,46,1,30,1C14,1,1,14,1,30c0,16,13,29,29,29C46,59,59,46,59,30z M3.6,30
			C3.6,15.4,15.4,3.6,30,3.6S56.4,15.4,56.4,30S44.6,56.4,30,56.4S3.6,44.6,3.6,30z"/>
		<path class="st0" d="M31.1,46.7V30h5.5l0.9-5.5h-6.4v-2.8c0-1.4,0.5-2.8,2.6-2.8h4.2v-5.5h-5.9c-5,0-6.3,3.3-6.3,7.8v3.4h-3.4V30
			h3.4v16.7H31.1L31.1,46.7z"/>
	</g>
</g>
</svg>
