<?xml version="1.0" encoding="utf-8"?>
<!-- Generator: Adobe Illustrator 21.0.0, SVG Export Plug-In . SVG Version: 6.00 Build 0)  -->
<svg version="1.1" id="Layer_1" xmlns="http://www.w3.org/2000/svg" xmlns:xlink="http://www.w3.org/1999/xlink" x="0px" y="0px"
	 viewBox="0 0 60 60" style="enable-background:new 0 0 60 60;" xml:space="preserve">
<style type="text/css">
	.st0{fill:#FFFFFF;}
</style>
<path class="st0" d="M59,30C59,14,46,1,30,1C14,1,1,14,1,30c0,16,13,29,29,29C46,59,59,46,59,30z M3.6,30C3.6,15.4,15.4,3.6,30,3.6
	S56.4,15.4,56.4,30S44.6,56.4,30,56.4S3.6,44.6,3.6,30z"/>
<path class="st0" d="M41,15H19.7c-1.9,0-3.5,1.6-3.5,3.5v21.6c0,1.9,1.6,3.5,3.5,3.5H41c1.9,0,3.5-1.6,3.5-3.5V18.5
	C44.5,16.6,42.9,15,41,15z M41.2,40.1c0,0.1-0.1,0.2-0.2,0.2H19.7c-0.1,0-0.2-0.1-0.2-0.2V18.5c0-0.1,0.1-0.2,0.2-0.2H41
	c0.1,0,0.2,0.1,0.2,0.2V40.1z"/>
<rect x="35.2" y="20.9" class="st0" width="3.8" height="3.5"/>
<circle class="st0" cx="30.3" cy="30.7" r="3.8"/>
<path class="st0" d="M36.4,30.7c0,3.3-2.7,6-6,6s-6-2.7-6-6l0-2.7h-2.7v10H39V28h-2.7L36.4,30.7z"/>
</svg>
