<?xml version="1.0" encoding="utf-8"?>
<!-- Generator: Adobe Illustrator 21.0.0, SVG Export Plug-In . SVG Version: 6.00 Build 0)  -->
<svg version="1.1" id="Layer_1" xmlns="http://www.w3.org/2000/svg" xmlns:xlink="http://www.w3.org/1999/xlink" x="0px" y="0px"
	 viewBox="0 0 128 128" style="enable-background:new 0 0 128 128;" xml:space="preserve">
<style type="text/css">
	.st0{fill:#AC771F;}
	.st1{fill:#004842;}
	.st2{fill:#FFFFFF;}
</style>
<g>
	<g>
		<path class="st0" d="M107.6,104.7c-0.4,0-0.9-0.2-1.2-0.5c-0.6-0.7-0.6-1.7,0-2.3c10.7-10.5,16.8-24.5,17.2-39.5
			C124.3,31.1,99.4,5,68.1,4.3c-10.7-0.2-21.2,2.5-30.4,8c-0.8,0.5-1.8,0.2-2.3-0.6C35,11,35.2,10,36,9.5C45.7,3.7,56.8,0.8,68.1,1
			c33.1,0.7,59.5,28.3,58.8,61.4c-0.4,15.9-6.8,30.7-18.2,41.7C108.4,104.5,108,104.7,107.6,104.7z"/>
	</g>
	<path class="st1" d="M99.1,111.1c-0.2-0.6-0.7-1-1.4-1.1c-0.3,0-6.2-0.7-11.5-0.2c-2.4,0.2-4.7-0.8-6.2-2.6
		c-1.2-1.5-1.7-3.5-1.5-5.4c0.4-3.4,1-8,1.2-10.9c0-0.6-0.3-1.3-0.9-1.6c-0.6-0.3-1.3-0.2-1.8,0.2c-0.6,0.5-14.1,11.6-17.4,28.1
		c-3.8-1.9-13-8.5-14-27.8c-0.1-1.5-0.1-2.9-0.1-4.4c3.6-2.9,5.6-6.4,5.6-6.4c0.2-0.4,0.3-1,0.1-1.4c-0.2-0.5-0.6-0.8-1.1-1L46,75.5
		c0.2-1.2,0.4-2.3,0.7-3.5c6.9,1.6,12.1-0.4,15.3-2.4c3.8-2.4,5.7-5.3,5.7-5.4c0.3-0.4,0.3-0.9,0.2-1.4c-0.2-0.5-0.5-0.8-1-1
		l-13.4-5.3c4.8-7.1,11.6-13,20.5-17.5c0.7-0.3,1-1.1,0.9-1.8c-0.2-0.7-0.8-1.3-1.5-1.3l-6.3-0.4c-0.2-0.1-0.5-0.2-0.8-0.2
		c0,0,0,0-0.1,0c0,0-0.2,0-0.5,0c1.1-3.9,2.6-11.3,0.2-14.5c-0.8-1.1-2-1.7-3.4-1.7c0,0,0,0-0.1,0c-1.1-0.1-11.4-0.6-23,4
		c-2.1,0.8-4.4,1.9-6.6,3.2C28.7,25.5,29,18,29,17.9c0-0.6-0.3-1.2-0.9-1.5c-0.6-0.3-1.3-0.2-1.8,0.2C25.5,17.2,5.1,33.2,2.1,58.3
		c-1.8,14.9,3,29.7,14.1,44.2c0,0,0,0.1,0.1,0.1c0.2,0.3,0.5,0.6,0.7,0.9c0,0.1,0.1,0.1,0.1,0.1c9.3,11.7,24.4,19.4,45.2,22.7
		c0.2,0,1.4,0.2,3.4,0.2c6.3,0,20.4-1.5,32.9-13.7C99.1,112.3,99.3,111.7,99.1,111.1z"/>
	<path class="st2" d="M79.8,111.3c-2.3,0.9-5.3,2.2-8.7,3.8c1.6-2.1,3.2-4.8,5-8.2c0.4,0.8,0.8,1.6,1.4,2.3
		C78.1,110,78.9,110.7,79.8,111.3z"/>
	<path class="st2" d="M25.1,107.3c-2-9.6-1.8-18,0.6-25.2c0.1,3.6,0.7,7.9,2,12.3c2.6,8.9,8.9,20,23.8,26.1
		C40.6,117.7,31.8,113.2,25.1,107.3z"/>
	<path class="st2" d="M76.1,94.9c-0.2,2.1-0.5,4.3-0.7,6.1c-5.4,11.7-10.2,16.4-12.6,18.1C64.6,108.1,71.9,99.2,76.1,94.9z"/>
	<path class="st2" d="M42.3,90c0.9,16.2,7.1,24.3,12.1,28.1c-12.1-4.4-19.9-12.6-23.5-24.5c-0.5-1.6-0.8-3.1-1.1-4.6
		c1.6,0.4,3.1,0.6,4.5,0.6c3,0,5.6-0.8,7.8-2C42.2,88.4,42.3,89.2,42.3,90z"/>
	<path class="st2" d="M43.3,83.1c-4,3.2-8.3,4.1-13,2.7c-1.4-3.7-1.4-7.7-0.1-11.4l16.8,4.8C46.2,80.3,45,81.8,43.3,83.1z"/>
	<path class="st2" d="M31.6,71.4c1-1.2,2-2.3,3.1-3.4c4.6-4.4,9.7-6.9,12.9-8.1c-1.5,3-2.7,6.1-3.6,9.4c0,0.1-0.1,0.2-0.1,0.3
		c0,0.1-0.1,0.3-0.1,0.4c-0.4,1.5-0.7,3.1-1,4.6L31.6,71.4z"/>
	<path class="st2" d="M63.8,64c-2.3,2.5-7.6,6.7-16.1,4.9c1.1-3.4,2.4-6.6,4.2-9.6L63.8,64z"/>
	<path class="st2" d="M50.1,55.6c-1.5,0.4-9.9,2.8-17.5,10c-0.5,0.5-0.9,0.9-1.4,1.4c3.7-10.7,10.2-18.6,19.5-23.6
		c2.7-1.5,5.4-2.5,7.7-3.2v5.5C55.2,48.7,52.4,52,50.1,55.6z"/>
	<path class="st2" d="M61.7,42.9v-3.6c1.6-0.3,2.8-0.5,3.6-0.6l2.3,0.1C65.5,40.1,63.5,41.4,61.7,42.9z"/>
	<path class="st2" d="M62.6,22.5c0.5,0,0.7,0.1,0.8,0.3c1.4,1.9,0.2,8.5-1.1,13c-0.2,0-0.4,0.1-0.6,0.1V22.5c0.5,0,0.7,0,0.8,0
		C62.5,22.5,62.5,22.5,62.6,22.5z"/>
	<path class="st2" d="M5.4,58.7C7.6,40,20.5,26.3,25.9,21.2c0.1,0.6,0.2,1.3,0.4,1.9c0.6,2.4,1.8,4.1,3.3,5.3
		c-8.7,5.9-17.3,15.7-21.3,32.2c-0.1,0.5-2.1,8-1.1,17.9C5.2,71.9,4.6,65.3,5.4,58.7z"/>
	<path class="st2" d="M18.9,100.6C18.9,100.6,18.9,100.5,18.9,100.6c-0.6-0.8-1.2-1.6-1.7-2.4c-11-17.1-5.9-36.5-5.8-36.7
		c4.2-17.4,14.1-29.2,29.2-35.2c7.1-2.8,13.7-3.6,17.8-3.8v14.2c-2.7,0.7-5.8,1.9-9.1,3.6c-8.2,4.4-18.9,13.5-23,32.1c0,0,0,0,0,0.1
		c0,0.1-0.1,0.5-0.2,1.1c-5.7,9.6-6.2,20.4-5,29.6C20.4,102.4,19.6,101.5,18.9,100.6z"/>
	<path class="st2" d="M63.3,123.1c8.8-5.5,19.2-9.4,21.2-10.1c0.7,0.1,1.3,0.1,2,0c2.4-0.2,5-0.2,7-0.1
		C80.3,123.7,66.1,123.3,63.3,123.1z"/>
	<circle class="st1" cx="49" cy="31.1" r="2.4"/>
</g>
</svg>
