<?xml version="1.0" encoding="UTF-8" standalone="no"?>
<svg
   xmlns:dc="http://purl.org/dc/elements/1.1/"
   xmlns:cc="http://creativecommons.org/ns#"
   xmlns:rdf="http://www.w3.org/1999/02/22-rdf-syntax-ns#"
   xmlns:svg="http://www.w3.org/2000/svg"
   xmlns="http://www.w3.org/2000/svg"
   xmlns:sodipodi="http://sodipodi.sourceforge.net/DTD/sodipodi-0.dtd"
   xmlns:inkscape="http://www.inkscape.org/namespaces/inkscape"
   version="1.1"
   id="Capa_1"
   x="0px"
   y="0px"
   width="90"
   height="90"
   viewBox="0 0 107.57812 107.57812"
   xml:space="preserve"
   class=""
   sodipodi:docname="menu.svg"
   inkscape:version="0.92.2 (5c3e80d, 2017-08-06)"><metadata
     id="metadata16"><rdf:RDF><cc:Work
         rdf:about=""><dc:format>image/svg+xml</dc:format><dc:type
           rdf:resource="http://purl.org/dc/dcmitype/StillImage" /><dc:title></dc:title></cc:Work></rdf:RDF></metadata><defs
     id="defs14" /><sodipodi:namedview
     pagecolor="#ffffff"
     bordercolor="#666666"
     borderopacity="1"
     objecttolerance="10"
     gridtolerance="10"
     guidetolerance="10"
     inkscape:pageopacity="0"
     inkscape:pageshadow="2"
     inkscape:window-width="1366"
     inkscape:window-height="706"
     id="namedview12"
     showgrid="false"
     inkscape:zoom="2.6074563"
     inkscape:cx="16.025084"
     inkscape:cy="49.06741"
     inkscape:window-x="-8"
     inkscape:window-y="-8"
     inkscape:window-maximized="1"
     inkscape:current-layer="Capa_1" /><g
     id="g9"
     transform="matrix(0.17073263,0,0,0.18947438,1.8336836,-4.760171)"><g
       id="g7"><g
         id="_x33__6_"><g
           id="g4"><path
             d="M 581.4,520.199 H 30.6 c -16.891,0 -30.6,13.709 -30.6,30.6 0,16.892 13.709,30.601 30.6,30.601 h 550.8 c 16.891,0 30.6,-13.709 30.6,-30.602 0,-16.89 -13.709,-30.599 -30.6,-30.599 z M 30.6,91.799 h 550.8 c 16.891,0 30.6,-13.708 30.6,-30.6 0,-16.892 -13.709,-30.6 -30.6,-30.6 H 30.6 C 13.709,30.6 0,44.308 0,61.2 0,78.091 13.709,91.799 30.6,91.799 Z m 550.8,183.6 H 30.6 C 13.709,275.399 0,289.108 0,306 c 0,16.892 13.709,30.6 30.6,30.6 h 550.8 c 16.891,0 30.6,-13.709 30.6,-30.6 0,-16.891 -13.709,-30.601 -30.6,-30.601 z"
             data-original="#000000"
             class="active-path"
             data-old_color="#F00D0D"
             id="path2"
             inkscape:connector-curvature="0"
             style="fill:#ffffff" /></g></g></g></g></svg>