<?xml version="1.0" encoding="UTF-8" standalone="no"?>
<!-- Generator: Adobe Illustrator 19.0.0, SVG Export Plug-In . SVG Version: 6.00 Build 0)  -->

<svg
   xmlns:dc="http://purl.org/dc/elements/1.1/"
   xmlns:cc="http://creativecommons.org/ns#"
   xmlns:rdf="http://www.w3.org/1999/02/22-rdf-syntax-ns#"
   xmlns:svg="http://www.w3.org/2000/svg"
   xmlns="http://www.w3.org/2000/svg"
   xmlns:sodipodi="http://sodipodi.sourceforge.net/DTD/sodipodi-0.dtd"
   xmlns:inkscape="http://www.inkscape.org/namespaces/inkscape"
   version="1.1"
   id="Capa_1"
   x="0px"
   y="0px"
   viewBox="0 0 7.734375 1.71875"
   xml:space="preserve"
   width="90"
   height="20"
   sodipodi:docname="switchLanguage.svg"
   inkscape:version="0.92.3 (2405546, 2018-03-11)"><metadata
   id="metadata39"><rdf:RDF><cc:Work
       rdf:about=""><dc:format>image/svg+xml</dc:format><dc:type
         rdf:resource="http://purl.org/dc/dcmitype/StillImage" /><dc:title></dc:title></cc:Work></rdf:RDF></metadata><defs
   id="defs37" /><sodipodi:namedview
   pagecolor="#ffffff"
   bordercolor="#666666"
   borderopacity="1"
   objecttolerance="10"
   gridtolerance="10"
   guidetolerance="10"
   inkscape:pageopacity="0"
   inkscape:pageshadow="2"
   inkscape:window-width="1920"
   inkscape:window-height="1018"
   id="namedview35"
   showgrid="false"
   inkscape:zoom="6.761744"
   inkscape:cx="39.967739"
   inkscape:cy="5.8192768"
   inkscape:window-x="-8"
   inkscape:window-y="-8"
   inkscape:window-maximized="1"
   inkscape:current-layer="Capa_1" />
<path
   d="m 6.6764207,1.6070526 h -5.578606 c -0.56901158,0 -1.03189797,-0.334072 -1.03189797,-0.7448654 0,-0.41079319 0.46288639,-0.74486529 1.03189797,-0.74486529 H 6.676247 c 0.5691855,0 1.0320718,0.3340721 1.0320718,0.74486529 0,0.4107934 -0.4628863,0.7448654 -1.0318981,0.7448654 z M 1.0978147,0.36561038 c -0.37100394,0 -0.68451607,0.22743218 -0.68451607,0.49657682 0,0.2691448 0.31351213,0.496577 0.68451607,0.496577 H 6.676247 c 0.3711775,0 0.6846896,-0.2274322 0.6846896,-0.496577 0,-0.26914464 -0.3135121,-0.49657685 -0.6845159,-0.49657685 z"
   id="path2"
   style="fill:#ab761c;fill-opacity:1;stroke-width:0.14684252"
   inkscape:connector-curvature="0" />
<g
   id="g4"
   transform="translate(0,-42.28125)">
</g>
<g
   id="g6"
   transform="translate(0,-42.28125)">
</g>
<g
   id="g8"
   transform="translate(0,-42.28125)">
</g>
<g
   id="g10"
   transform="translate(0,-42.28125)">
</g>
<g
   id="g12"
   transform="translate(0,-42.28125)">
</g>
<g
   id="g14"
   transform="translate(0,-42.28125)">
</g>
<g
   id="g16"
   transform="translate(0,-42.28125)">
</g>
<g
   id="g18"
   transform="translate(0,-42.28125)">
</g>
<g
   id="g20"
   transform="translate(0,-42.28125)">
</g>
<g
   id="g22"
   transform="translate(0,-42.28125)">
</g>
<g
   id="g24"
   transform="translate(0,-42.28125)">
</g>
<g
   id="g26"
   transform="translate(0,-42.28125)">
</g>
<g
   id="g28"
   transform="translate(0,-42.28125)">
</g>
<g
   id="g30"
   transform="translate(0,-42.28125)">
</g>
<g
   id="g32"
   transform="translate(0,-42.28125)">
</g>
</svg>