<?xml version="1.0" encoding="utf-8"?>
<!-- Generator: Adobe Illustrator 21.0.0, SVG Export Plug-In . SVG Version: 6.00 Build 0)  -->
<svg version="1.1" id="Layer_1" xmlns="http://www.w3.org/2000/svg" xmlns:xlink="http://www.w3.org/1999/xlink" x="0px" y="0px"
	 viewBox="0 0 60 60" style="enable-background:new 0 0 60 60;" xml:space="preserve">
<style type="text/css">
	.st0{fill:#FFFFFF;}
</style>
<path class="st0" d="M59,30C59,14,46,1,30,1C14,1,1,14,1,30c0,16,13,29,29,29C46,59,59,46,59,30z M3.6,30C3.6,15.4,15.4,3.6,30,3.6
	S56.4,15.4,56.4,30S44.6,56.4,30,56.4S3.6,44.6,3.6,30z"/>
<g>
	<path class="st0" d="M44.3,31.8v9.1c0,0.6-0.1,1.1-0.4,1.6c-0.2,0.5-0.6,0.9-1,1.3c-0.4,0.4-0.9,0.6-1.4,0.8
		c-0.5,0.2-1.1,0.3-1.8,0.3H21.1c-0.6,0-1.2-0.1-1.8-0.3c-0.5-0.2-1-0.5-1.4-0.8c-0.4-0.4-0.7-0.8-1-1.3c-0.2-0.5-0.4-1-0.4-1.6
		v-9.1c0-0.5,0.1-1.1,0.4-1.5c0.2-0.5,0.6-0.9,1-1.3c0.4-0.4,0.9-0.6,1.4-0.9c0.5-0.2,1.1-0.3,1.8-0.3h18.6c0.6,0,1.2,0.1,1.8,0.3
		c0.6,0.2,1,0.5,1.5,0.9c0.4,0.4,0.7,0.8,1,1.3C44.2,30.7,44.3,31.3,44.3,31.8z M22.4,41.9v-9.6h2.3v-1.5h-6.2v1.4h2v9.6H22.4z
		 M23.3,19.6L20.8,14H23l1.3,4.2l1.3-4.2h2.2l-2.4,5.6v6.5h-2V19.6z M29.3,33.7h-1.9v5.1c0,0.4,0,0.7,0,0.9c0,0.2,0,0.3-0.1,0.4
		c-0.1,0.2-0.2,0.4-0.5,0.5c-0.3,0.1-0.5,0-0.6-0.4c0-0.1,0-0.2,0-0.4c0-0.2,0-0.5,0-0.8l0-5.2h-1.9l0,5.1c0,0.4,0,0.7,0,1
		c0,0.3,0,0.5,0,0.6c0,0.2,0.1,0.5,0.1,0.7c0,0.3,0.2,0.5,0.4,0.6c0.2,0.1,0.5,0.2,0.8,0.2c0.3,0,0.6-0.1,0.9-0.1
		c0.3-0.1,0.5-0.2,0.8-0.4c0.2-0.2,0.4-0.4,0.5-0.6l0,1l1.6,0V33.7z M27.6,20.4c0-0.8,0.1-1.4,0.2-1.9c0.2-0.5,0.4-0.9,0.8-1.1
		c0.4-0.3,0.9-0.4,1.4-0.4c0.5,0,0.9,0.1,1.3,0.2c0.3,0.1,0.6,0.4,0.8,0.7c0.2,0.3,0.3,0.5,0.4,0.9c0.1,0.3,0.1,0.8,0.1,1.4v2.2
		c0,0.8,0,1.4-0.1,1.7c0,0.3-0.2,0.7-0.4,1.1c-0.2,0.3-0.5,0.6-0.8,0.7c-0.4,0.2-0.7,0.2-1.2,0.2c-0.5,0-0.9-0.1-1.2-0.2
		c-0.3-0.1-0.6-0.3-0.8-0.6c-0.2-0.2-0.3-0.5-0.4-0.9c-0.1-0.4-0.1-0.9-0.1-1.7C27.6,22.7,27.6,20.4,27.6,20.4z M29.3,23.8
		c0,0.2,0.1,0.4,0.3,0.6c0.2,0.2,0.4,0.3,0.6,0.3c0.2,0,0.4-0.1,0.6-0.2c0.2-0.2,0.3-0.4,0.3-0.6v-4.5c0-0.2-0.1-0.5-0.3-0.6
		c-0.2-0.2-0.4-0.3-0.6-0.3c-0.2,0-0.4,0.1-0.6,0.3c-0.2,0.2-0.3,0.4-0.3,0.6V23.8z M35.5,39.6v-4.3c0-0.8-0.3-1.4-0.9-1.7
		c-0.2-0.1-0.4-0.2-0.7-0.2c-0.5,0-1,0.2-1.6,0.6v-3.2h-1.9v11l1.6,0l0.1-0.7c0.5,0.4,1,0.7,1.4,0.8c0.4,0.1,0.8,0.1,1-0.1
		c0.3-0.2,0.5-0.5,0.7-0.9C35.4,40.5,35.5,40.1,35.5,39.6z M33.2,34.5c0.2,0,0.4,0.1,0.6,0.2c0.2,0.1,0.3,0.3,0.3,0.4v4.8
		c0,0.2-0.1,0.3-0.3,0.4c-0.2,0.1-0.4,0.2-0.6,0.2c-0.2,0-0.4-0.1-0.6-0.2c-0.2-0.1-0.3-0.3-0.3-0.4v-4.8c0-0.2,0.1-0.3,0.3-0.4
		C32.7,34.5,32.9,34.5,33.2,34.5z M34,25.2c0-0.1-0.1-0.2-0.1-0.3c0-0.1,0-0.2-0.1-0.3c0-0.1,0-0.3,0-0.6v-0.9v-5.7h1.8V24
		c0,0.2,0.1,0.3,0.2,0.4c0.1,0.1,0.3,0.2,0.5,0.2c0.2,0,0.4-0.1,0.5-0.2c0.1-0.1,0.2-0.3,0.2-0.4v-6.6h1.7v8.5h-2.1l0-0.7
		c-0.2,0.3-0.4,0.5-0.6,0.6c-0.2,0.1-0.5,0.2-0.7,0.2c-0.3,0-0.6-0.1-0.8-0.2C34.3,25.7,34.2,25.5,34,25.2z M41.5,39H40v0.2V40
		c0,0.2-0.1,0.4-0.2,0.5c-0.2,0.1-0.3,0.2-0.6,0.2h-0.3c-0.2,0-0.4-0.1-0.5-0.2c-0.1-0.1-0.2-0.3-0.2-0.5v-0.1v-0.8V38h3.3v-1.1
		c0-0.4,0-0.8,0-1.2c0-0.4,0-0.7-0.1-0.9c-0.1-0.4-0.2-0.7-0.5-0.9c-0.3-0.2-0.6-0.4-1-0.5c-0.4-0.1-0.8-0.1-1.2,0
		c-0.4,0.1-0.7,0.2-1,0.4c-0.4,0.2-0.6,0.6-0.8,1c-0.2,0.4-0.2,1-0.2,1.8V39c0,1.1,0.3,1.8,0.9,2.3c0.5,0.4,1.1,0.6,1.7,0.6
		c0.1,0,0.1,0,0.2,0c0.7,0,1.2-0.3,1.7-0.8c0.4-0.4,0.6-0.9,0.6-1.5C41.5,39.5,41.5,39.3,41.5,39z M40,36.6h-1.8l0-1
		c0-0.2,0.1-0.4,0.2-0.6c0.2-0.1,0.4-0.2,0.6-0.2h0.1c0.2,0,0.5,0.1,0.6,0.2c0.2,0.1,0.3,0.3,0.3,0.6L40,36.6z"/>
</g>
</svg>
