<?xml version="1.0" encoding="UTF-8" standalone="no"?>
<svg
   xmlns:dc="http://purl.org/dc/elements/1.1/"
   xmlns:cc="http://creativecommons.org/ns#"
   xmlns:rdf="http://www.w3.org/1999/02/22-rdf-syntax-ns#"
   xmlns:svg="http://www.w3.org/2000/svg"
   xmlns="http://www.w3.org/2000/svg"
   xmlns:sodipodi="http://sodipodi.sourceforge.net/DTD/sodipodi-0.dtd"
   xmlns:inkscape="http://www.inkscape.org/namespaces/inkscape"
   version="1.1"
   id="Capa_1"
   x="0px"
   y="0px"
   width="90"
   height="90"
   viewBox="0 0 8.7278906 8.7278906"
   xml:space="preserve"
   class=""
   sodipodi:docname="instagram.svg"
   inkscape:version="0.92.2 (5c3e80d, 2017-08-06)"><metadata
     id="metadata23"><rdf:RDF><cc:Work
         rdf:about=""><dc:format>image/svg+xml</dc:format><dc:type
           rdf:resource="http://purl.org/dc/dcmitype/StillImage" /><dc:title></dc:title></cc:Work></rdf:RDF></metadata><defs
     id="defs21" /><sodipodi:namedview
     pagecolor="#ffffff"
     bordercolor="#666666"
     borderopacity="1"
     objecttolerance="10"
     gridtolerance="10"
     guidetolerance="10"
     inkscape:pageopacity="0"
     inkscape:pageshadow="2"
     inkscape:window-width="1366"
     inkscape:window-height="706"
     id="namedview19"
     showgrid="false"
     inkscape:zoom="1.3037281"
     inkscape:cx="-38.164777"
     inkscape:cy="108.30169"
     inkscape:window-x="-8"
     inkscape:window-y="-8"
     inkscape:window-maximized="1"
     inkscape:current-layer="Capa_1" /><g
     id="g16"
     transform="matrix(0.16525424,0,0,0.16525424,0.29753615,0.29953538)"><g
       id="g14"><g
         id="g12"><g
           id="g10"><path
             d="m 24.825,29.796 c 2.739,0 4.972,-2.229 4.972,-4.97 0,-1.082 -0.354,-2.081 -0.94,-2.897 -0.903,-1.252 -2.371,-2.073 -4.029,-2.073 -1.659,0 -3.126,0.82 -4.031,2.072 -0.588,0.816 -0.939,1.815 -0.94,2.897 -0.003,2.741 2.228,4.971 4.968,4.971 z"
             data-original="#000000"
             class="active-path"
             data-old_color="#000000"
             id="path2"
             inkscape:connector-curvature="0"
             style="fill:#ffffff" /><polygon
             points="35.678,18.746 35.678,14.58 35.678,13.96 35.055,13.962 30.891,13.975 30.907,18.762 "
             data-original="#000000"
             class="active-path"
             data-old_color="#000000"
             id="polygon4"
             style="fill:#ffffff" /><path
             d="M 24.826,0 C 11.137,0 0,11.137 0,24.826 0,38.514 11.137,49.652 24.826,49.652 38.514,49.652 49.652,38.514 49.652,24.826 49.652,11.137 38.516,0 24.826,0 Z m 14.119,21.929 v 11.56 c 0,3.011 -2.448,5.458 -5.457,5.458 H 16.164 c -3.01,0 -5.457,-2.447 -5.457,-5.458 v -11.56 -5.764 c 0,-3.01 2.447,-5.457 5.457,-5.457 h 17.323 c 3.01,0 5.458,2.447 5.458,5.457 z"
             data-original="#000000"
             class="active-path"
             data-old_color="#000000"
             id="path6"
             inkscape:connector-curvature="0"
             style="fill:#ffffff" /><path
             d="m 32.549,24.826 c 0,4.257 -3.464,7.723 -7.723,7.723 -4.259,0 -7.722,-3.466 -7.722,-7.723 0,-1.024 0.204,-2.003 0.568,-2.897 h -4.215 v 11.56 c 0,1.494 1.213,2.704 2.706,2.704 h 17.323 c 1.491,0 2.706,-1.21 2.706,-2.704 v -11.56 h -4.217 c 0.367,0.894 0.574,1.873 0.574,2.897 z"
             data-original="#000000"
             class="active-path"
             data-old_color="#000000"
             id="path8"
             inkscape:connector-curvature="0"
             style="fill:#ffffff" /></g></g></g></g></svg>