<?xml version="1.0" encoding="utf-8"?>
<!-- Generator: Adobe Illustrator 21.0.0, SVG Export Plug-In . SVG Version: 6.00 Build 0)  -->
<svg version="1.1" id="Layer_1" xmlns="http://www.w3.org/2000/svg" xmlns:xlink="http://www.w3.org/1999/xlink" x="0px" y="0px"
	 viewBox="0 0 90 90" style="enable-background:new 0 0 90 90;" xml:space="preserve">
<style type="text/css">
	.st0{fill:#174441;}
</style>
<g>
	<g>
		<path class="st0" d="M77.1,12H12.2C6.5,12,1.7,16.7,1.7,22.5v44.3c0,5.8,4.7,10.5,10.5,10.5h64.8c5.8,0,10.5-4.7,10.5-10.5V22.5
			C87.6,16.7,82.9,12,77.1,12z M82.8,66.8c0,3.1-2.6,5.7-5.7,5.7H12.2c-3.1,0-5.7-2.6-5.7-5.7V22.5c0-3.1,2.6-5.7,5.7-5.7h64.8
			c3.1,0,5.7,2.6,5.7,5.7L82.8,66.8L82.8,66.8z"/>
		<path class="st0" d="M55.9,44.1l21-18.8c1-0.9,1.1-2.4,0.2-3.4c-0.9-1-2.4-1.1-3.4-0.2l-28.9,26l-5.6-5c0,0,0,0,0-0.1
			c-0.1-0.1-0.2-0.2-0.4-0.3l-23-20.6c-1-0.9-2.5-0.8-3.4,0.2c-0.9,1-0.8,2.5,0.2,3.4l21.2,19L12.5,64.1c-1,0.9-1,2.4-0.1,3.4
			c0.5,0.5,1.1,0.8,1.8,0.8c0.6,0,1.2-0.2,1.6-0.6l21.5-20.1l5.8,5.2c0.5,0.4,1,0.6,1.6,0.6c0.6,0,1.2-0.2,1.6-0.6l6-5.4l21.3,20.3
			c0.5,0.4,1.1,0.7,1.7,0.7c0.6,0,1.3-0.2,1.7-0.7c0.9-1,0.9-2.5-0.1-3.4L55.9,44.1z"/>
	</g>
</g>
</svg>
