<?xml version="1.0" encoding="utf-8"?>
<!-- Generator: Adobe Illustrator 21.0.0, SVG Export Plug-In . SVG Version: 6.00 Build 0)  -->
<svg version="1.1" id="Layer_1" xmlns="http://www.w3.org/2000/svg" xmlns:xlink="http://www.w3.org/1999/xlink" x="0px" y="0px"
	 viewBox="0 0 90 90" style="enable-background:new 0 0 90 90;" xml:space="preserve">
<style type="text/css">
	.st0{fill:#174441;}
</style>
<g>
	<g>
		<path class="st0" d="M45,0.9c-17.3,0-31.3,14-31.3,31.3c0,5.8,1.6,11.5,4.7,16.5l24.9,40.1c0.5,0.8,1.3,1.2,2.2,1.2c0,0,0,0,0,0
			c0.9,0,1.8-0.5,2.2-1.3l24.2-40.4c2.9-4.8,4.4-10.4,4.4-16C76.3,15,62.3,0.9,45,0.9z M67.4,45.6l-22,36.8L22.8,46
			c-2.5-4.1-3.9-8.9-3.9-13.7C18.9,17.9,30.6,6.1,45,6.1s26.1,11.7,26.1,26.1C71.1,37,69.8,41.6,67.4,45.6z"/>
	</g>
</g>
<g>
	<g>
		<path class="st0" d="M45,16.6c-8.6,0-15.7,7-15.7,15.7c0,8.6,6.9,15.7,15.7,15.7c8.9,0,15.7-7.2,15.7-15.7
			C60.7,23.6,53.6,16.6,45,16.6z M45,42.7c-5.8,0-10.5-4.7-10.5-10.5c0-5.8,4.7-10.5,10.5-10.5s10.5,4.7,10.5,10.5
			C55.5,37.9,50.9,42.7,45,42.7z"/>
	</g>
</g>
</svg>
