<?xml version="1.0" encoding="UTF-8" standalone="no"?>
<!-- Generator: Adobe Illustrator 21.0.0, SVG Export Plug-In . SVG Version: 6.00 Build 0)  -->

<svg
   xmlns:dc="http://purl.org/dc/elements/1.1/"
   xmlns:cc="http://creativecommons.org/ns#"
   xmlns:rdf="http://www.w3.org/1999/02/22-rdf-syntax-ns#"
   xmlns:svg="http://www.w3.org/2000/svg"
   xmlns="http://www.w3.org/2000/svg"
   xmlns:sodipodi="http://sodipodi.sourceforge.net/DTD/sodipodi-0.dtd"
   xmlns:inkscape="http://www.inkscape.org/namespaces/inkscape"
   version="1.1"
   id="Layer_1"
   x="0px"
   y="0px"
   viewBox="0 0 50 50"
   xml:space="preserve"
   sodipodi:docname="map2.svg"
   width="50"
   height="50"
   inkscape:version="0.92.2 (5c3e80d, 2017-08-06)"><metadata
     id="metadata49"><rdf:RDF><cc:Work
         rdf:about=""><dc:format>image/svg+xml</dc:format><dc:type
           rdf:resource="http://purl.org/dc/dcmitype/StillImage" /><dc:title></dc:title></cc:Work></rdf:RDF></metadata><defs
     id="defs47" /><sodipodi:namedview
     pagecolor="#ffffff"
     bordercolor="#666666"
     borderopacity="1"
     objecttolerance="10"
     gridtolerance="10"
     guidetolerance="10"
     inkscape:pageopacity="0"
     inkscape:pageshadow="2"
     inkscape:window-width="1366"
     inkscape:window-height="706"
     id="namedview45"
     showgrid="false"
     inkscape:zoom="3.7083822"
     inkscape:cx="13.278175"
     inkscape:cy="24.447832"
     inkscape:window-x="-8"
     inkscape:window-y="-8"
     inkscape:window-maximized="1"
     inkscape:current-layer="Layer_1" /><style
     type="text/css"
     id="style2">
	.st0{fill:#F5F5F5;}
	.st1{fill:#AB761C;}
	.st2{fill:#AC771F;}
	.st3{fill:#004842;}
	.st4{fill:#FFFFFF;}
</style><path
     class="st0"
     d="m 48.258833,20.367988 c 0,10.866049 -23.522604,29.837583 -23.522604,29.837583 0,0 -23.5226036,-18.971534 -23.5226036,-29.837583 0,-10.8660485 10.5325086,-19.67635844 23.5226036,-19.67635844 12.990095,0 23.522604,8.81030994 23.522604,19.67635844 z"
     id="path4"
     inkscape:connector-curvature="0"
     style="fill:#f5f5f5;stroke-width:0.64219993" /><g
     id="g857"
     transform="matrix(0.64173826,0,0,0.56437281,-4.193203,22.720615)"><path
       style="fill:#ab761c"
       inkscape:connector-curvature="0"
       id="path6"
       d="m 45.5,48.7 -1,-1 c -1.4,-1.3 -34,-32.9 -34,-51.9 0,-19.3 15.7,-35 35,-35 19.3,0 35,15.7 35,35 0,18.9 -32.6,50.5 -34,51.9 z m 0,-84.8 c -17.6,0 -32,14.4 -32,32 0,15.9 26.4,43.1 32,48.7 5.6,-5.6 32,-32.8 32,-48.7 0,-17.7 -14.4,-32 -32,-32 z"
       class="st1" /></g><g
     id="g42"
     transform="matrix(0.67393425,0,0,0.6330498,-6.8513345,-2.5357874)"><g
       id="g10"><path
         class="st2"
         d="m 63.6,52.9 c -0.2,0 -0.3,-0.1 -0.5,-0.2 -0.3,-0.3 -0.3,-0.7 0,-0.9 4.3,-4.2 6.8,-9.9 6.9,-15.9 0.3,-12.7 -9.8,-23.2 -22.4,-23.5 -4.3,-0.1 -8.6,1 -12.3,3.2 -0.3,0.2 -0.7,0.1 -0.9,-0.2 -0.2,-0.3 -0.1,-0.7 0.2,-0.9 3.9,-2.3 8.4,-3.5 13,-3.4 13.4,0.3 24,11.4 23.7,24.8 -0.1,6.4 -2.7,12.4 -7.3,16.9 -0.1,0 -0.2,0.1 -0.4,0.1 z"
         id="path8"
         inkscape:connector-curvature="0"
         style="fill:#ac771f" /></g><path
       class="st3"
       d="M 60.1,55.4 C 60,55.2 59.8,55 59.5,55 59.4,55 57,54.7 54.9,54.9 53.9,55 53,54.6 52.4,53.8 c -0.5,-0.6 -0.7,-1.4 -0.6,-2.2 0.2,-1.4 0.4,-3.2 0.5,-4.4 0,-0.3 -0.1,-0.5 -0.4,-0.6 -0.2,-0.1 -0.5,-0.1 -0.7,0.1 -0.2,0.2 -5.7,4.7 -7,11.4 -1.6,-0.8 -5.2,-3.4 -5.7,-11.2 0,-0.6 0,-1.2 0,-1.8 1.5,-1.2 2.3,-2.6 2.3,-2.6 0.1,-0.2 0.1,-0.4 0,-0.6 -0.1,-0.2 -0.2,-0.3 -0.4,-0.4 L 38.7,41 c 0.1,-0.5 0.2,-0.9 0.3,-1.4 2.8,0.6 4.9,-0.2 6.2,-1 1.5,-1 2.3,-2.1 2.3,-2.2 0.1,-0.2 0.1,-0.4 0.1,-0.6 -0.1,-0.2 -0.2,-0.3 -0.4,-0.4 l -5.4,-2.1 c 1.9,-2.9 4.7,-5.2 8.3,-7.1 0.3,-0.1 0.4,-0.4 0.3,-0.7 C 50.3,25.2 50.1,25 49.8,25 l -2.5,-0.1 c -0.1,0 -0.2,-0.1 -0.3,-0.1 0,0 0,0 0,0 0,0 -0.1,0 -0.2,0 0.4,-1.6 1.1,-4.5 0.1,-5.8 -0.3,-0.4 -0.8,-0.7 -1.4,-0.7 0,0 0,0 0,0 -0.4,0 -4.6,-0.2 -9.3,1.6 -0.9,0.3 -1.8,0.8 -2.7,1.3 -1.7,-0.3 -1.6,-3.4 -1.6,-3.4 0,-0.3 -0.1,-0.5 -0.4,-0.6 -0.2,-0.1 -0.5,-0.1 -0.7,0.1 -0.3,0.3 -8.6,6.7 -9.8,16.9 -0.7,6 1.2,12 5.7,17.8 0,0 0,0 0,0 0.1,0.1 0.2,0.2 0.3,0.4 0,0 0,0 0.1,0.1 3.7,4.7 9.9,7.8 18.3,9.2 0.1,0 0.6,0.1 1.4,0.1 2.6,0 8.2,-0.6 13.3,-5.5 0.1,-0.3 0.1,-0.6 0,-0.9 z"
       id="path12"
       inkscape:connector-curvature="0"
       style="fill:#004842" /><path
       class="st4"
       d="m 52.3,55.5 c -0.9,0.4 -2.1,0.9 -3.5,1.5 0.6,-0.9 1.3,-1.9 2,-3.3 0.1,0.3 0.3,0.6 0.5,0.9 0.4,0.4 0.7,0.7 1,0.9 z"
       id="path14"
       inkscape:connector-curvature="0"
       style="fill:#ffffff" /><path
       class="st4"
       d="m 30.3,53.9 c -0.8,-3.9 -0.7,-7.3 0.2,-10.2 0.1,1.4 0.3,3.2 0.8,5 1.1,3.6 3.6,8.1 9.6,10.6 -4.4,-1.2 -7.9,-3 -10.6,-5.4 z"
       id="path16"
       inkscape:connector-curvature="0"
       style="fill:#ffffff" /><path
       class="st4"
       d="m 50.8,48.9 c -0.1,0.8 -0.2,1.7 -0.3,2.5 -2.2,4.7 -4.1,6.6 -5.1,7.3 0.8,-4.5 3.8,-8 5.4,-9.8 z"
       id="path18"
       inkscape:connector-curvature="0"
       style="fill:#ffffff" /><path
       class="st4"
       d="m 37.2,47 c 0.4,6.6 2.9,9.8 4.9,11.4 -4.9,-1.8 -8.1,-5.1 -9.5,-9.9 -0.2,-0.6 -0.3,-1.2 -0.4,-1.8 0.6,0.2 1.3,0.3 1.8,0.3 1.2,0 2.3,-0.3 3.2,-0.8 0,0.1 0,0.4 0,0.8 z"
       id="path20"
       inkscape:connector-curvature="0"
       style="fill:#ffffff" /><path
       class="st4"
       d="m 37.6,44.1 c -1.6,1.3 -3.4,1.6 -5.2,1.1 -0.6,-1.5 -0.6,-3.1 -0.1,-4.6 l 6.8,1.9 c -0.3,0.5 -0.8,1.1 -1.5,1.6 z"
       id="path22"
       inkscape:connector-curvature="0"
       style="fill:#ffffff" /><path
       class="st4"
       d="m 32.9,39.4 c 0.4,-0.5 0.8,-0.9 1.3,-1.4 1.9,-1.8 3.9,-2.8 5.2,-3.3 -0.6,1.2 -1.1,2.5 -1.5,3.8 0,0 0,0.1 -0.1,0.1 0,0.1 0,0.1 0,0.2 -0.2,0.6 -0.3,1.2 -0.4,1.9 z"
       id="path24"
       inkscape:connector-curvature="0"
       style="fill:#ffffff" /><path
       class="st4"
       d="m 45.9,36.5 c -0.9,1 -3.1,2.7 -6.5,2 0.4,-1.4 1,-2.7 1.7,-3.9 z"
       id="path26"
       inkscape:connector-curvature="0"
       style="fill:#ffffff" /><path
       class="st4"
       d="m 40.4,33 c -0.6,0.2 -4,1.1 -7.1,4 -0.2,0.2 -0.4,0.4 -0.6,0.6 1.5,-4.3 4.1,-7.5 7.9,-9.5 1.1,-0.6 2.2,-1 3.1,-1.3 V 29 c -1.3,1.2 -2.4,2.6 -3.3,4 z"
       id="path28"
       inkscape:connector-curvature="0"
       style="fill:#ffffff" /><path
       class="st4"
       d="m 45,27.9 v -1.5 c 0.6,-0.1 1.1,-0.2 1.5,-0.2 l 0.9,0.1 c -0.8,0.5 -1.6,1 -2.4,1.6 z"
       id="path30"
       inkscape:connector-curvature="0"
       style="fill:#ffffff" /><path
       class="st4"
       d="m 45.4,19.7 c 0.2,0 0.3,0.1 0.3,0.1 0.6,0.8 0.1,3.4 -0.5,5.2 -0.1,0 -0.2,0 -0.2,0 v -5.4 c 0.2,0.1 0.3,0.1 0.4,0.1 0,0 0,0 0,0 z"
       id="path32"
       inkscape:connector-curvature="0"
       style="fill:#ffffff" /><path
       class="st4"
       d="m 22.3,34.3 c 0.9,-7.5 6.1,-13.1 8.3,-15.1 0,0.2 0.1,0.5 0.2,0.8 0.3,1 0.7,1.7 1.3,2.1 -3.5,2.4 -7,6.3 -8.6,13 -0.1,0.2 -0.9,3.2 -0.4,7.2 -0.9,-2.7 -1.1,-5.3 -0.8,-8 z"
       id="path34"
       inkscape:connector-curvature="0"
       style="fill:#ffffff" /><path
       class="st4"
       d="m 27.8,51.2 c 0,0 0,0 0,0 -0.3,-0.3 -0.5,-0.7 -0.7,-1 -4.4,-6.9 -2.4,-14.7 -2.4,-14.8 1.7,-7 5.7,-11.8 11.8,-14.2 2.9,-1.1 5.5,-1.4 7.2,-1.5 v 5.7 c -1.1,0.3 -2.3,0.8 -3.7,1.5 -3.3,1.8 -7.6,5.4 -9.3,13 0,0 0,0 0,0 0,0 0,0.2 -0.1,0.5 -2.3,3.9 -2.5,8.3 -2,12 -0.2,-0.5 -0.5,-0.8 -0.8,-1.2 z"
       id="path36"
       inkscape:connector-curvature="0"
       style="fill:#ffffff" /><path
       class="st4"
       d="m 45.7,60.3 c 3.6,-2.2 7.8,-3.8 8.6,-4.1 0.3,0 0.5,0 0.8,0 1,-0.1 2,-0.1 2.8,0 -5.3,4.4 -11.1,4.2 -12.2,4.1 z"
       id="path38"
       inkscape:connector-curvature="0"
       style="fill:#ffffff" /><circle
       class="st3"
       cx="39.900002"
       cy="23.200001"
       r="1"
       id="circle40"
       style="fill:#004842" /></g></svg>