<?xml version="1.0" encoding="utf-8"?>
<!-- Generator: Adobe Illustrator 21.0.0, SVG Export Plug-In . SVG Version: 6.00 Build 0)  -->
<svg version="1.1" id="Layer_1" xmlns="http://www.w3.org/2000/svg" xmlns:xlink="http://www.w3.org/1999/xlink" x="0px" y="0px"
	 viewBox="0 0 90 90" style="enable-background:new 0 0 90 90;" xml:space="preserve">
<style type="text/css">
	.st0{fill:#174441;}
</style>
<g>
	<g>
		<path class="st0" d="M85.8,65.4L75.1,54.7c-2.9-2.9-7.7-2.9-10.7,0l-4.9,4.9c-2.2,2.2-5.9,2.2-8.1,0L30.4,38.5
			c-2.2-2.2-2.2-5.9,0-8.1c0.8-0.8,3-3,4.9-4.9c2.9-2.9,3-7.7,0-10.7L24.6,4.2c-2.9-2.9-7.7-2.9-10.7,0C11.7,6.4,11,7.1,10,8.1
			C-0.7,18.7-0.7,36,10,46.6L43.3,80C54,90.7,71.2,90.7,81.9,80l3.9-3.9C88.7,73.2,88.7,68.4,85.8,65.4z M17.4,7.8c1-1,2.6-1,3.6,0
			l10.7,10.7c1,1,1,2.6,0,3.6l-1.8,1.8L15.7,9.5L17.4,7.8z M46.9,76.4L13.5,43.1c-8.2-8.2-8.7-21.1-1.4-29.9l14.2,14.2
			c-3.7,4.2-3.6,10.7,0.5,14.7l21.1,21.1c0,0,0,0,0,0c4,4,10.5,4.2,14.7,0.5l14.2,14.2C68.1,85.1,55.2,84.7,46.9,76.4z M82.2,72.6
			l-1.8,1.8L66.2,60.1l1.8-1.8c1-1,2.6-1,3.6,0L82.2,69C83.2,70,83.2,71.6,82.2,72.6z"/>
	</g>
</g>
</svg>
